<?xml version="1.0" encoding="utf-8"?>
<!-- Generator: Adobe Illustrator 25.0.1, SVG Export Plug-In . SVG Version: 6.00 Build 0)  -->
<svg version="1.1" id="Layer_1" xmlns="http://www.w3.org/2000/svg" xmlns:xlink="http://www.w3.org/1999/xlink" x="0px" y="0px"
	 viewBox="0 0 283.44 213.63" style="enable-background:new 0 0 283.44 213.63;" xml:space="preserve">
<g>
	<path d="M14.06,179.09c0,0.85-0.24,1.48-0.72,1.88s-1.22,0.61-2.22,0.61h-1.2v2.96H8.34v-7.87h2.78c1.01,0,1.76,0.2,2.23,0.61
		S14.06,178.29,14.06,179.09z M12.42,179.11c0-0.36-0.11-0.63-0.32-0.83s-0.55-0.29-1-0.29H9.93v2.25h1.17
		c0.48,0,0.82-0.1,1.02-0.29C12.32,179.76,12.42,179.48,12.42,179.11z"/>
	<path d="M17.86,180.07c-0.38,0-0.67,0.15-0.88,0.46s-0.3,0.74-0.3,1.31v2.69h-1.51v-5.7h1.4v0.81h0.02
		c0.2-0.33,0.41-0.57,0.64-0.72c0.23-0.14,0.5-0.22,0.82-0.22c0.19,0,0.37,0.02,0.53,0.07c0.16,0.04,0.32,0.11,0.47,0.19l-0.48,1.34
		c-0.08-0.05-0.19-0.11-0.33-0.16C18.09,180.1,17.97,180.07,17.86,180.07z"/>
	<path d="M19.4,181.65c0-0.56,0.11-1.06,0.34-1.51s0.56-0.8,0.99-1.05s0.94-0.38,1.53-0.38c0.6,0,1.12,0.13,1.55,0.38
		c0.44,0.26,0.77,0.61,1,1.05c0.23,0.45,0.34,0.95,0.34,1.52c0,0.59-0.11,1.11-0.34,1.56c-0.23,0.45-0.56,0.81-0.99,1.06
		c-0.43,0.26-0.95,0.38-1.54,0.38s-1.11-0.13-1.54-0.38c-0.43-0.26-0.76-0.61-0.99-1.07S19.4,182.24,19.4,181.65z M22.26,179.94
		c-0.25,0-0.48,0.07-0.67,0.21c-0.2,0.14-0.35,0.34-0.47,0.61s-0.17,0.58-0.17,0.93c0,0.35,0.05,0.66,0.16,0.93
		c0.11,0.26,0.26,0.47,0.46,0.61c0.2,0.14,0.43,0.21,0.7,0.21s0.5-0.07,0.71-0.21c0.2-0.14,0.36-0.34,0.47-0.61s0.17-0.58,0.17-0.94
		c0-0.35-0.05-0.65-0.16-0.91s-0.26-0.46-0.46-0.61C22.78,180.01,22.54,179.94,22.26,179.94z"/>
	<path d="M31.52,184.54h-1.41v-0.69h-0.02c-0.21,0.29-0.46,0.5-0.74,0.63c-0.28,0.13-0.6,0.2-0.96,0.2c-0.48,0-0.9-0.12-1.28-0.37
		c-0.37-0.25-0.67-0.6-0.88-1.06s-0.32-1-0.32-1.61c0-0.58,0.1-1.09,0.31-1.53c0.2-0.44,0.49-0.78,0.86-1.03
		c0.37-0.24,0.8-0.36,1.29-0.36c0.33,0,0.64,0.06,0.92,0.19c0.28,0.13,0.51,0.31,0.71,0.54h0.02v-2.78h1.51V184.54z M28.75,179.91
		c-0.41,0-0.73,0.16-0.95,0.48c-0.23,0.32-0.34,0.76-0.34,1.31c0,0.37,0.05,0.69,0.15,0.95c0.1,0.26,0.25,0.46,0.43,0.6
		c0.19,0.14,0.41,0.21,0.66,0.21c0.43,0,0.75-0.15,0.98-0.46c0.22-0.31,0.34-0.75,0.34-1.33c0-0.35-0.05-0.66-0.16-0.93
		c-0.11-0.27-0.26-0.47-0.45-0.62S28.99,179.91,28.75,179.91z"/>
	<path d="M35.38,183.52c0.19,0,0.37-0.04,0.55-0.13c0.18-0.09,0.33-0.24,0.45-0.47c0.12-0.23,0.18-0.53,0.18-0.91v-3.17h1.51v5.7
		h-1.41v-0.75c-0.2,0.28-0.45,0.5-0.75,0.65c-0.3,0.15-0.63,0.23-0.98,0.23c-0.63,0-1.12-0.17-1.45-0.5
		c-0.33-0.34-0.5-0.81-0.5-1.42v-3.91h1.51v3.56c0,0.38,0.07,0.66,0.21,0.84S35.08,183.52,35.38,183.52z"/>
	<path d="M41.94,179.91c-0.39,0-0.69,0.16-0.9,0.47c-0.21,0.31-0.31,0.75-0.31,1.31c0,0.52,0.1,0.94,0.31,1.26
		c0.21,0.32,0.52,0.48,0.92,0.48c0.28,0,0.52-0.09,0.7-0.28c0.18-0.19,0.31-0.46,0.36-0.81l1.48,0.26c-0.16,0.7-0.45,1.22-0.89,1.56
		c-0.44,0.34-1.01,0.51-1.73,0.51c-0.58,0-1.08-0.13-1.49-0.39c-0.41-0.26-0.71-0.61-0.92-1.06c-0.2-0.45-0.31-0.96-0.31-1.53
		c0-0.59,0.11-1.11,0.32-1.56s0.52-0.8,0.93-1.04c0.41-0.25,0.91-0.37,1.49-0.37c0.65,0,1.19,0.15,1.62,0.45s0.72,0.76,0.88,1.39
		l-1.48,0.27c-0.06-0.29-0.18-0.52-0.35-0.67C42.43,179.99,42.21,179.91,41.94,179.91z"/>
	<path d="M48.35,178.84v1.2h-1.06v2.78c0,0.16,0.01,0.29,0.03,0.37c0.02,0.08,0.06,0.14,0.12,0.18c0.06,0.03,0.15,0.05,0.27,0.05
		c0.19,0,0.38-0.03,0.6-0.09l0.19,1.17c-0.16,0.05-0.35,0.1-0.55,0.13s-0.4,0.05-0.61,0.05c-0.4,0-0.71-0.06-0.94-0.17
		s-0.39-0.29-0.48-0.54c-0.1-0.25-0.14-0.6-0.14-1.04v-2.88h-0.81v-1.2h0.81v-1.04l1.51-1.07v2.11H48.35z"/>
	<path d="M49.53,180.39v-1.55h1.55v1.55H49.53z M49.53,184.54v-1.55h1.55v1.55H49.53z"/>
</g>
<g>
	<g>
		<path d="M65.33,183.6v-5.5h0.56v6.44h-0.65l-3.49-5.47h-0.02v5.47h-0.56v-6.44h0.62l3.52,5.5H65.33z"/>
		<path d="M70.92,184.54h-0.58c-0.08-0.19-0.13-0.42-0.15-0.7l-0.01,0c-0.21,0.28-0.45,0.48-0.71,0.62s-0.58,0.2-0.95,0.2
			c-0.28,0-0.53-0.06-0.75-0.16c-0.21-0.11-0.38-0.26-0.5-0.46s-0.18-0.42-0.18-0.67c0-0.27,0.06-0.5,0.17-0.69
			c0.11-0.19,0.3-0.35,0.55-0.47c0.25-0.12,0.58-0.22,1-0.28c0.61-0.09,1.06-0.19,1.34-0.29v-0.17c0-0.29-0.03-0.52-0.1-0.69
			c-0.06-0.17-0.18-0.3-0.35-0.38c-0.17-0.08-0.41-0.12-0.72-0.12c-0.67,0-1.08,0.3-1.21,0.91l-0.56-0.08
			c0.09-0.43,0.29-0.76,0.6-0.98s0.71-0.33,1.21-0.33c0.39,0,0.7,0.05,0.95,0.15s0.43,0.27,0.56,0.5c0.12,0.23,0.19,0.54,0.19,0.92
			v1.75c0,0.4,0.01,0.7,0.04,0.89C70.78,184.17,70.83,184.36,70.92,184.54z M68.75,182.41c-0.39,0.07-0.66,0.18-0.83,0.33
			s-0.25,0.35-0.25,0.61c0,0.26,0.09,0.47,0.26,0.61c0.17,0.15,0.41,0.22,0.72,0.22c0.11,0,0.25-0.02,0.39-0.07
			c0.15-0.04,0.29-0.11,0.42-0.18c0.13-0.08,0.24-0.17,0.32-0.26c0.1-0.13,0.18-0.23,0.22-0.33c0.05-0.09,0.08-0.22,0.1-0.37
			s0.03-0.38,0.03-0.67v-0.24c-0.08,0.04-0.24,0.09-0.47,0.15C69.43,182.27,69.13,182.34,68.75,182.41z"/>
		<path d="M73.7,179.88v0.46h-0.88v3.06c0,0.2,0.02,0.35,0.05,0.45c0.03,0.1,0.09,0.17,0.16,0.2c0.07,0.03,0.17,0.05,0.3,0.05
			c0.13,0,0.26-0.02,0.4-0.06l0.08,0.49c-0.25,0.04-0.44,0.06-0.57,0.06c-0.28,0-0.48-0.04-0.62-0.13s-0.24-0.21-0.28-0.39
			c-0.05-0.17-0.07-0.42-0.07-0.73v-3.01h-0.67v-0.46h0.67v-1.12l0.57-0.4v1.52H73.7z"/>
		<path d="M76.26,184.15c0.44,0,0.79-0.14,1.03-0.43c0.24-0.29,0.37-0.7,0.37-1.24v-2.61h0.57v4.66H77.7v-0.75
			c-0.16,0.27-0.37,0.48-0.63,0.63c-0.26,0.15-0.54,0.22-0.85,0.22c-0.51,0-0.91-0.14-1.18-0.42c-0.27-0.28-0.41-0.67-0.41-1.17
			v-3.19h0.57v3.12c0,0.37,0.09,0.66,0.27,0.86C75.64,184.05,75.91,184.15,76.26,184.15z"/>
		<path d="M81.13,180.34c-0.24,0-0.44,0.07-0.61,0.22s-0.29,0.34-0.38,0.6c-0.08,0.26-0.12,0.55-0.12,0.89v2.5h-0.57v-4.66h0.53
			v0.74l0.01,0c0.15-0.29,0.31-0.5,0.49-0.64s0.4-0.21,0.67-0.21c0.13,0,0.24,0.01,0.35,0.04c0.11,0.03,0.23,0.08,0.37,0.15
			l-0.19,0.53C81.48,180.39,81.3,180.34,81.13,180.34z"/>
		<path d="M86.13,184.54h-0.58c-0.08-0.19-0.13-0.42-0.15-0.7l-0.01,0c-0.21,0.28-0.45,0.48-0.71,0.62s-0.58,0.2-0.95,0.2
			c-0.28,0-0.53-0.06-0.75-0.16c-0.21-0.11-0.38-0.26-0.5-0.46s-0.18-0.42-0.18-0.67c0-0.27,0.06-0.5,0.17-0.69
			c0.11-0.19,0.3-0.35,0.55-0.47c0.25-0.12,0.58-0.22,1-0.28c0.61-0.09,1.06-0.19,1.34-0.29v-0.17c0-0.29-0.03-0.52-0.1-0.69
			c-0.06-0.17-0.18-0.3-0.35-0.38c-0.17-0.08-0.41-0.12-0.72-0.12c-0.67,0-1.08,0.3-1.21,0.91l-0.56-0.08
			c0.09-0.43,0.29-0.76,0.6-0.98s0.71-0.33,1.21-0.33c0.39,0,0.7,0.05,0.95,0.15s0.43,0.27,0.56,0.5c0.12,0.23,0.19,0.54,0.19,0.92
			v1.75c0,0.4,0.01,0.7,0.04,0.89C85.99,184.17,86.04,184.36,86.13,184.54z M83.96,182.41c-0.39,0.07-0.66,0.18-0.83,0.33
			s-0.25,0.35-0.25,0.61c0,0.26,0.09,0.47,0.26,0.61c0.17,0.15,0.41,0.22,0.72,0.22c0.11,0,0.25-0.02,0.39-0.07
			c0.15-0.04,0.29-0.11,0.42-0.18c0.13-0.08,0.24-0.17,0.32-0.26c0.1-0.13,0.18-0.23,0.22-0.33c0.05-0.09,0.08-0.22,0.1-0.37
			s0.03-0.38,0.03-0.67v-0.24c-0.08,0.04-0.24,0.09-0.47,0.15C84.64,182.27,84.34,182.34,83.96,182.41z"/>
		<path d="M87.23,184.54v-6.44h0.57v6.44H87.23z"/>
		<path d="M93.14,180.25c-0.28,0-0.53,0.07-0.75,0.22s-0.4,0.37-0.52,0.66c-0.13,0.29-0.19,0.66-0.19,1.08
			c0,0.39,0.06,0.73,0.18,1.02c0.12,0.29,0.29,0.52,0.51,0.69c0.22,0.16,0.49,0.25,0.8,0.25c0.35,0,0.64-0.1,0.88-0.3
			c0.24-0.2,0.41-0.51,0.53-0.94l0.57,0.11c-0.15,0.54-0.39,0.94-0.72,1.21c-0.33,0.27-0.76,0.4-1.28,0.4c-0.42,0-0.79-0.1-1.1-0.31
			c-0.31-0.21-0.54-0.5-0.71-0.87c-0.16-0.37-0.24-0.79-0.24-1.27c0-0.48,0.08-0.91,0.25-1.28s0.41-0.65,0.73-0.85
			s0.68-0.3,1.09-0.3c0.51,0,0.92,0.12,1.23,0.36c0.31,0.24,0.54,0.59,0.68,1.06l-0.57,0.11C94.32,180.6,93.86,180.25,93.14,180.25z
			"/>
		<path d="M95.77,182.21c0-0.52,0.09-0.97,0.26-1.33s0.42-0.64,0.73-0.83c0.31-0.19,0.68-0.28,1.09-0.28c0.42,0,0.79,0.09,1.1,0.28
			c0.31,0.19,0.56,0.46,0.73,0.83c0.17,0.37,0.26,0.81,0.26,1.33s-0.09,0.96-0.26,1.33c-0.17,0.37-0.42,0.65-0.73,0.83
			c-0.32,0.19-0.68,0.28-1.11,0.28c-0.41,0-0.78-0.09-1.09-0.28c-0.32-0.19-0.56-0.47-0.73-0.83S95.77,182.72,95.77,182.21z
			 M97.85,180.25c-0.29,0-0.55,0.07-0.77,0.22c-0.22,0.15-0.4,0.37-0.53,0.66c-0.13,0.29-0.19,0.65-0.19,1.08
			c0,0.43,0.06,0.79,0.19,1.09c0.13,0.29,0.3,0.51,0.53,0.66c0.22,0.15,0.49,0.22,0.78,0.22c0.3,0,0.56-0.07,0.78-0.22
			c0.23-0.14,0.41-0.36,0.53-0.66c0.13-0.29,0.19-0.66,0.19-1.09c0-0.42-0.06-0.77-0.19-1.06c-0.13-0.29-0.31-0.51-0.53-0.66
			S98.15,180.25,97.85,180.25z"/>
		<path d="M102.57,180.34c-0.24,0-0.44,0.07-0.61,0.22s-0.29,0.34-0.38,0.6c-0.08,0.26-0.12,0.55-0.12,0.89v2.5h-0.57v-4.66h0.53
			v0.74l0.01,0c0.15-0.29,0.31-0.5,0.49-0.64s0.4-0.21,0.67-0.21c0.13,0,0.24,0.01,0.35,0.04c0.11,0.03,0.23,0.08,0.37,0.15
			l-0.19,0.53C102.92,180.39,102.74,180.34,102.57,180.34z"/>
		<path d="M104.57,181.96l2.16-2.09h0.73l-1.83,1.76l1.97,2.9h-0.71l-1.67-2.54l-0.65,0.61v1.93H104v-6.44h0.57V181.96z"/>
		<path d="M112.11,180.25c-0.2,0-0.38,0.03-0.53,0.09s-0.28,0.15-0.36,0.26c-0.09,0.11-0.13,0.25-0.13,0.4
			c0,0.16,0.04,0.29,0.11,0.4c0.07,0.1,0.19,0.19,0.37,0.26c0.17,0.07,0.42,0.14,0.74,0.19c0.4,0.07,0.71,0.17,0.95,0.28
			c0.24,0.11,0.41,0.26,0.52,0.44s0.17,0.39,0.17,0.65c0,0.27-0.07,0.52-0.22,0.73c-0.15,0.21-0.35,0.38-0.61,0.51
			s-0.56,0.18-0.89,0.18c-0.5,0-0.91-0.11-1.21-0.34s-0.5-0.56-0.59-1.01l0.56-0.09c0.13,0.64,0.55,0.95,1.24,0.95
			c0.23,0,0.44-0.04,0.61-0.11c0.17-0.07,0.3-0.18,0.4-0.31c0.09-0.13,0.14-0.29,0.14-0.46c0-0.18-0.05-0.33-0.14-0.45
			s-0.23-0.21-0.43-0.28s-0.46-0.14-0.8-0.2c-0.49-0.08-0.86-0.23-1.1-0.44c-0.24-0.21-0.36-0.5-0.36-0.87
			c0-0.25,0.06-0.47,0.19-0.66s0.31-0.35,0.55-0.46s0.51-0.17,0.83-0.17c0.45,0,0.82,0.1,1.11,0.29c0.29,0.19,0.48,0.47,0.57,0.85
			l-0.55,0.08c-0.05-0.23-0.18-0.42-0.37-0.54C112.67,180.31,112.42,180.25,112.11,180.25z"/>
		<path d="M116.61,179.88v0.46h-0.88v3.06c0,0.2,0.02,0.35,0.05,0.45c0.03,0.1,0.09,0.17,0.16,0.2c0.07,0.03,0.17,0.05,0.3,0.05
			c0.13,0,0.26-0.02,0.4-0.06l0.08,0.49c-0.25,0.04-0.44,0.06-0.57,0.06c-0.28,0-0.48-0.04-0.62-0.13s-0.24-0.21-0.28-0.39
			c-0.05-0.17-0.07-0.42-0.07-0.73v-3.01h-0.67v-0.46h0.67v-1.12l0.57-0.4v1.52H116.61z"/>
		<path d="M117.26,182.21c0-0.52,0.09-0.97,0.26-1.33s0.42-0.64,0.73-0.83c0.31-0.19,0.68-0.28,1.09-0.28c0.42,0,0.79,0.09,1.1,0.28
			c0.31,0.19,0.56,0.46,0.73,0.83c0.17,0.37,0.26,0.81,0.26,1.33s-0.09,0.96-0.26,1.33c-0.17,0.37-0.42,0.65-0.73,0.83
			c-0.32,0.19-0.68,0.28-1.11,0.28c-0.41,0-0.78-0.09-1.09-0.28c-0.32-0.19-0.56-0.47-0.73-0.83S117.26,182.72,117.26,182.21z
			 M119.34,180.25c-0.29,0-0.55,0.07-0.77,0.22c-0.22,0.15-0.4,0.37-0.53,0.66c-0.13,0.29-0.19,0.65-0.19,1.08
			c0,0.43,0.06,0.79,0.19,1.09c0.13,0.29,0.3,0.51,0.53,0.66c0.22,0.15,0.49,0.22,0.78,0.22c0.3,0,0.56-0.07,0.78-0.22
			c0.23-0.14,0.41-0.36,0.53-0.66c0.13-0.29,0.19-0.66,0.19-1.09c0-0.42-0.06-0.77-0.19-1.06c-0.13-0.29-0.31-0.51-0.53-0.66
			S119.64,180.25,119.34,180.25z"/>
		<path d="M122.97,183.85h-0.02v2.47h-0.57v-6.45h0.53v0.76l0.02,0c0.21-0.31,0.44-0.53,0.71-0.66c0.26-0.13,0.56-0.2,0.88-0.2
			c0.39,0,0.73,0.1,1.01,0.31c0.29,0.21,0.5,0.49,0.66,0.85c0.15,0.36,0.23,0.77,0.23,1.23c0,0.5-0.08,0.93-0.23,1.3
			c-0.16,0.37-0.38,0.66-0.67,0.87c-0.29,0.21-0.64,0.31-1.03,0.31c-0.34,0-0.63-0.06-0.87-0.19
			C123.37,184.34,123.16,184.14,122.97,183.85z M124.44,180.25c-0.33,0-0.61,0.09-0.83,0.26c-0.23,0.17-0.4,0.41-0.51,0.72
			s-0.17,0.66-0.17,1.05c0,0.39,0.06,0.73,0.19,1.02s0.3,0.5,0.52,0.65c0.22,0.15,0.49,0.22,0.78,0.22c0.29,0,0.54-0.08,0.75-0.24
			c0.21-0.16,0.38-0.39,0.49-0.69c0.11-0.3,0.17-0.65,0.17-1.06c0-0.38-0.06-0.72-0.17-1.01s-0.28-0.52-0.49-0.67
			S124.72,180.25,124.44,180.25z"/>
		<path d="M127.94,183.85h-0.02v2.47h-0.57v-6.45h0.53v0.76l0.02,0c0.21-0.31,0.44-0.53,0.71-0.66c0.26-0.13,0.56-0.2,0.88-0.2
			c0.39,0,0.73,0.1,1.01,0.31c0.29,0.21,0.5,0.49,0.66,0.85c0.15,0.36,0.23,0.77,0.23,1.23c0,0.5-0.08,0.93-0.23,1.3
			c-0.16,0.37-0.38,0.66-0.67,0.87c-0.29,0.21-0.64,0.31-1.03,0.31c-0.34,0-0.63-0.06-0.87-0.19
			C128.35,184.34,128.13,184.14,127.94,183.85z M129.42,180.25c-0.33,0-0.61,0.09-0.83,0.26c-0.23,0.17-0.4,0.41-0.51,0.72
			c-0.11,0.31-0.17,0.66-0.17,1.05c0,0.39,0.06,0.73,0.19,1.02c0.12,0.28,0.3,0.5,0.52,0.65c0.22,0.15,0.49,0.22,0.78,0.22
			c0.29,0,0.54-0.08,0.75-0.24c0.21-0.16,0.38-0.39,0.49-0.69c0.11-0.3,0.17-0.65,0.17-1.06c0-0.38-0.06-0.72-0.17-1.01
			s-0.28-0.52-0.49-0.67S129.69,180.25,129.42,180.25z"/>
		<path d="M134.19,184.17c0.31,0,0.58-0.08,0.81-0.25c0.23-0.17,0.4-0.4,0.5-0.7l0.56,0.09c-0.15,0.44-0.39,0.77-0.72,1
			c-0.33,0.23-0.73,0.35-1.19,0.35c-0.43,0-0.8-0.1-1.11-0.29s-0.56-0.48-0.73-0.84s-0.25-0.79-0.25-1.27
			c0-0.51,0.09-0.95,0.26-1.32c0.17-0.37,0.41-0.66,0.73-0.86s0.68-0.3,1.1-0.3c0.47,0,0.85,0.11,1.15,0.33s0.52,0.52,0.66,0.9
			s0.21,0.82,0.21,1.31h-3.52c0.01,0.38,0.08,0.72,0.21,1c0.13,0.28,0.31,0.49,0.54,0.64C133.62,184.1,133.89,184.17,134.19,184.17z
			 M134.13,180.25c-0.27,0-0.51,0.06-0.72,0.19s-0.38,0.31-0.51,0.55c-0.13,0.24-0.21,0.53-0.24,0.86h2.92
			c-0.05-0.53-0.2-0.92-0.44-1.19C134.89,180.38,134.55,180.25,134.13,180.25z"/>
		<path d="M138.76,180.34c-0.24,0-0.44,0.07-0.61,0.22s-0.29,0.34-0.38,0.6c-0.08,0.26-0.12,0.55-0.12,0.89v2.5h-0.57v-4.66h0.53
			v0.74l0.01,0c0.15-0.29,0.31-0.5,0.49-0.64s0.4-0.21,0.67-0.21c0.13,0,0.24,0.01,0.35,0.04c0.11,0.03,0.23,0.08,0.37,0.15
			l-0.19,0.53C139.11,180.39,138.93,180.34,138.76,180.34z"/>
		<path d="M145.56,182.45h0.88v0.48h-0.88v1.6h-0.54v-1.6h-2.93v-0.49l3.04-4.35h0.44V182.45z M145.01,179.02h-0.02l-2.39,3.44h2.41
			V179.02z"/>
		<path d="M148.48,178.68l-0.41,2.21c0.23-0.18,0.46-0.31,0.68-0.38c0.23-0.08,0.47-0.11,0.73-0.11c0.38,0,0.73,0.09,1.02,0.27
			s0.53,0.42,0.7,0.73c0.17,0.31,0.25,0.65,0.25,1.03c0,0.45-0.1,0.85-0.29,1.18s-0.45,0.59-0.78,0.77s-0.7,0.27-1.1,0.27
			c-0.5,0-0.92-0.14-1.25-0.42s-0.57-0.71-0.7-1.28l0.56-0.07c0.09,0.43,0.26,0.76,0.51,0.98s0.55,0.33,0.91,0.33
			c0.3,0,0.58-0.07,0.81-0.2s0.42-0.34,0.56-0.6c0.13-0.27,0.2-0.59,0.2-0.98c0-0.3-0.06-0.57-0.18-0.81s-0.29-0.42-0.51-0.55
			s-0.45-0.2-0.72-0.2c-0.3,0-0.57,0.06-0.8,0.17s-0.48,0.3-0.74,0.57l-0.46-0.06l0.61-3.34h3.1v0.49H148.48z"/>
		<path d="M156.37,181.66l1.2-1.78h0.69l-1.58,2.18l1.73,2.48h-0.69l-1.36-2.03l-1.36,2.03h-0.69l1.73-2.43l-1.58-2.23h0.69
			l1.2,1.78L156.37,181.66z"/>
		<path d="M161.2,184.54c0.03-0.29,0.1-0.55,0.2-0.78s0.28-0.47,0.53-0.72c0.25-0.25,0.61-0.55,1.08-0.89
			c0.48-0.35,0.84-0.64,1.09-0.88c0.25-0.24,0.42-0.46,0.53-0.67c0.1-0.21,0.15-0.44,0.15-0.7c0-0.27-0.06-0.51-0.18-0.71
			s-0.29-0.36-0.5-0.47s-0.46-0.16-0.73-0.16c-0.84,0-1.33,0.47-1.47,1.4l-0.55-0.07c0.1-0.6,0.33-1.05,0.68-1.34
			s0.81-0.44,1.38-0.44c0.38,0,0.72,0.08,1.01,0.24c0.3,0.16,0.53,0.37,0.69,0.64c0.17,0.27,0.25,0.57,0.25,0.9
			c0,0.29-0.05,0.56-0.16,0.8c-0.11,0.24-0.28,0.48-0.5,0.71s-0.53,0.5-0.92,0.79l-0.34,0.25c-0.36,0.27-0.62,0.47-0.8,0.62
			c-0.18,0.15-0.33,0.3-0.45,0.45c-0.13,0.15-0.23,0.32-0.3,0.51h3.48v0.52H161.2z"/>
		<path d="M169.56,182.45h0.88v0.48h-0.88v1.6h-0.54v-1.6h-2.93v-0.49l3.04-4.35h0.44V182.45z M169.02,179.02H169l-2.39,3.44h2.41
			V179.02z"/>
	</g>
</g>
<g>
	<path d="M11.64,199.26v6.54h-1.58v-6.54H7.78v-1.33h6.14v1.33H11.64z"/>
	<path d="M17.25,204.15h0.02c0.11-0.39,0.19-0.65,0.23-0.77l1.1-3.28h1.56l-2.19,5.87c-0.34,0.89-0.66,1.47-0.97,1.73
		c-0.32,0.27-0.77,0.41-1.34,0.41c-0.26,0-0.61-0.05-1.04-0.15l0.25-1.15c0.22,0.07,0.4,0.1,0.53,0.1c0.18,0,0.33-0.03,0.45-0.09
		c0.12-0.06,0.22-0.16,0.32-0.32c0.1-0.16,0.2-0.39,0.31-0.7l-2.18-5.71h1.61l1.11,3.24C17.07,203.54,17.15,203.8,17.25,204.15z"/>
	<path d="M22.59,205.19h-0.03v2.79h-1.51v-7.88h1.41v0.84h0.03c0.2-0.33,0.45-0.57,0.77-0.73c0.31-0.16,0.65-0.24,1.01-0.24
		c0.46,0,0.87,0.12,1.23,0.37c0.36,0.25,0.65,0.6,0.86,1.06s0.31,0.99,0.31,1.6c0,0.6-0.1,1.12-0.31,1.57
		c-0.2,0.44-0.49,0.78-0.85,1.01c-0.36,0.23-0.78,0.35-1.26,0.35c-0.37,0-0.68-0.05-0.92-0.16
		C23.08,205.66,22.83,205.47,22.59,205.19z M23.9,201.17c-0.39,0-0.71,0.15-0.96,0.45c-0.25,0.3-0.38,0.79-0.38,1.45
		c0,0.34,0.05,0.63,0.16,0.88c0.11,0.25,0.26,0.44,0.45,0.57s0.42,0.2,0.68,0.2c0.42,0,0.73-0.15,0.95-0.46
		c0.22-0.31,0.32-0.75,0.32-1.33c0-0.56-0.11-0.99-0.32-1.3C24.57,201.33,24.27,201.17,23.9,201.17z"/>
	<path d="M30.16,204.78c0.32,0,0.58-0.07,0.79-0.22c0.21-0.14,0.35-0.34,0.43-0.58l1.5,0.24c-0.2,0.56-0.53,0.98-0.98,1.27
		c-0.45,0.29-1,0.44-1.66,0.44c-0.62,0-1.14-0.12-1.56-0.37s-0.74-0.59-0.95-1.03c-0.21-0.44-0.32-0.96-0.32-1.55
		c0-0.55,0.11-1.05,0.33-1.51c0.22-0.46,0.54-0.82,0.96-1.1s0.93-0.41,1.51-0.41c0.56,0,1.04,0.12,1.45,0.35
		c0.41,0.23,0.73,0.58,0.95,1.03c0.23,0.45,0.34,1,0.34,1.64v0.46h-4.01c0.04,0.42,0.16,0.75,0.37,0.98S29.81,204.78,30.16,204.78z
		 M28.95,202.35h2.5c-0.04-0.4-0.16-0.7-0.38-0.91s-0.5-0.32-0.85-0.32c-0.34,0-0.62,0.11-0.85,0.33
		C29.14,201.67,29,201.97,28.95,202.35z"/>
	<path d="M36.45,202.91c0-0.56,0.11-1.06,0.34-1.51s0.56-0.8,0.99-1.05s0.94-0.38,1.53-0.38c0.6,0,1.12,0.13,1.55,0.38
		c0.44,0.26,0.77,0.61,1,1.05c0.23,0.45,0.34,0.95,0.34,1.52c0,0.59-0.11,1.11-0.34,1.56c-0.23,0.45-0.56,0.81-0.99,1.06
		c-0.43,0.26-0.95,0.38-1.54,0.38s-1.11-0.13-1.54-0.38c-0.43-0.26-0.76-0.61-0.99-1.07S36.45,203.5,36.45,202.91z M39.32,201.2
		c-0.25,0-0.48,0.07-0.67,0.21c-0.2,0.14-0.35,0.34-0.47,0.61S38,202.59,38,202.95c0,0.35,0.05,0.66,0.16,0.93
		c0.11,0.26,0.26,0.47,0.46,0.61c0.2,0.14,0.43,0.21,0.7,0.21s0.5-0.07,0.71-0.21c0.2-0.14,0.36-0.34,0.47-0.61s0.17-0.58,0.17-0.94
		c0-0.35-0.05-0.65-0.16-0.91s-0.26-0.46-0.46-0.61C39.84,201.27,39.6,201.2,39.32,201.2z"/>
	<path d="M45.66,198.94c-0.15,0-0.27,0.02-0.35,0.08s-0.15,0.14-0.19,0.26s-0.06,0.29-0.06,0.52v0.31h1.1v1.2h-1.1v4.5h-1.51v-4.5
		h-0.83v-1.2h0.83v-0.35c0-0.39,0.05-0.72,0.14-1c0.09-0.28,0.27-0.51,0.54-0.69c0.27-0.18,0.66-0.27,1.17-0.27
		c0.19,0,0.41,0.02,0.66,0.05c0.25,0.04,0.45,0.07,0.6,0.11l-0.28,1.12c-0.12-0.04-0.25-0.08-0.38-0.1
		C45.87,198.96,45.76,198.94,45.66,198.94z"/>
	<path d="M51.28,205.19h-0.03v2.79h-1.51v-7.88h1.41v0.84h0.03c0.2-0.33,0.45-0.57,0.77-0.73c0.31-0.16,0.65-0.24,1.01-0.24
		c0.46,0,0.87,0.12,1.23,0.37c0.36,0.25,0.65,0.6,0.86,1.06s0.31,0.99,0.31,1.6c0,0.6-0.1,1.12-0.31,1.57
		c-0.2,0.44-0.49,0.78-0.85,1.01c-0.36,0.23-0.78,0.35-1.26,0.35c-0.37,0-0.68-0.05-0.92-0.16
		C51.77,205.66,51.53,205.47,51.28,205.19z M52.59,201.17c-0.39,0-0.71,0.15-0.96,0.45c-0.25,0.3-0.38,0.79-0.38,1.45
		c0,0.34,0.05,0.63,0.16,0.88c0.11,0.25,0.26,0.44,0.45,0.57s0.42,0.2,0.68,0.2c0.42,0,0.73-0.15,0.95-0.46
		c0.22-0.31,0.32-0.75,0.32-1.33c0-0.56-0.11-0.99-0.32-1.3C53.27,201.33,52.97,201.17,52.59,201.17z"/>
	<path d="M59.16,201.33c-0.38,0-0.67,0.15-0.88,0.46s-0.3,0.74-0.3,1.31v2.69h-1.51v-5.7h1.4v0.81h0.02
		c0.2-0.33,0.41-0.57,0.64-0.72c0.23-0.14,0.5-0.22,0.82-0.22c0.19,0,0.37,0.02,0.53,0.07c0.16,0.04,0.32,0.11,0.47,0.19l-0.48,1.34
		c-0.08-0.05-0.19-0.11-0.33-0.16C59.39,201.36,59.27,201.33,59.16,201.33z"/>
	<path d="M61.07,199.32v-1.4h1.51v1.4H61.07z M61.07,205.8v-5.7h1.51v5.7H61.07z"/>
	<path d="M67.65,202.24c0-0.37-0.07-0.64-0.2-0.83c-0.14-0.19-0.36-0.28-0.68-0.28c-0.35,0-0.63,0.12-0.85,0.37
		c-0.22,0.25-0.33,0.63-0.33,1.14v3.16h-1.51v-5.7h1.41v0.75c0.2-0.29,0.45-0.5,0.75-0.65c0.3-0.15,0.62-0.22,0.98-0.22
		c0.63,0,1.11,0.17,1.44,0.5c0.33,0.33,0.5,0.8,0.5,1.41v3.92h-1.51V202.24z"/>
	<path d="M73.36,200.1v1.2H72.3v2.78c0,0.16,0.01,0.29,0.03,0.37c0.02,0.08,0.06,0.14,0.12,0.18c0.06,0.03,0.15,0.05,0.27,0.05
		c0.19,0,0.38-0.03,0.6-0.09l0.19,1.17c-0.16,0.05-0.35,0.1-0.55,0.13s-0.4,0.05-0.61,0.05c-0.4,0-0.71-0.06-0.94-0.17
		s-0.39-0.29-0.48-0.54c-0.1-0.25-0.14-0.6-0.14-1.04v-2.88h-0.81v-1.2h0.81v-1.04l1.51-1.07v2.11H73.36z"/>
	<path d="M74.54,201.65v-1.55h1.55v1.55H74.54z M74.54,205.8v-1.55h1.55v1.55H74.54z"/>
</g>
<g>
	<g>
		<path d="M85.26,205.8v-6.44h0.61v6.44H85.26z"/>
		<path d="M90.3,202.69c0-0.38-0.1-0.66-0.29-0.86s-0.46-0.3-0.82-0.3c-0.27,0-0.51,0.07-0.72,0.2c-0.21,0.13-0.37,0.31-0.49,0.54
			c-0.11,0.21-0.16,0.52-0.16,0.93v2.61h-0.57v-4.66h0.53v0.74c0.16-0.27,0.37-0.48,0.62-0.63s0.54-0.22,0.86-0.22
			c0.51,0,0.9,0.14,1.18,0.41c0.28,0.27,0.42,0.66,0.42,1.17v3.19H90.3V202.69z"/>
		<path d="M92.72,203.22l2.16-2.09h0.73l-1.83,1.76l1.97,2.9h-0.71l-1.67-2.54l-0.65,0.61v1.93h-0.57v-6.44h0.57V203.22z"/>
	</g>
</g>
<g>
	<path d="M50.94,21.82v0.61h-9.14v-0.61c2.59-0.14,3.17-0.97,3.06-3.5L44.24,6.17l-5.92,16.26h-2.31L29.95,6.17l-0.31,12.15
		c-0.06,2.53,0.44,3.36,2.89,3.5v0.61H17.17v-0.61c2.47-0.14,2.45-1.64,1.83-3.5l-0.72-1.97H11l-0.67,1.97
		c-0.61,1.86-0.64,3.36,1.83,3.5v0.61H5.77v-0.61c1.97-0.14,2.5-1.58,3.2-3.5l5.61-15.34h1.97l5.48,15.34
		c0.89,2.53,1.22,3.5,3.36,3.5c2.28,0,2.75-0.97,2.89-3.5l0.58-11.23c0.14-2.53-0.44-3.36-3.03-3.5V2.97h6.23l6.23,16.84l5.64-16.84
		h6.39v0.61c-2.59,0.14-3.17,0.97-3.06,3.5l0.61,11.23C48.02,20.84,48.35,21.68,50.94,21.82 M17.97,15.42l-3.45-9.56l-3.22,9.56
		H17.97z M60.66,2.67v0.61c-4.17,0.97-5.95,4.56-5.95,9.42c0,4.86,1.78,8.45,5.95,9.42v0.61c-2.45-0.31-9.28-2.56-9.28-10.03
		C51.38,5.22,58.22,2.97,60.66,2.67z M72.37,12.7c0,7.48-6.84,9.73-9.28,10.03v-0.61C67.25,21.15,69,17.56,69,12.7
		c0-4.86-1.75-8.45-5.92-9.42V2.67C65.53,2.97,72.37,5.22,72.37,12.7z M91.82,2.97h9.12v0.61c-2.58,0.14-3.03,0.97-3.03,3.5v11.23
		c0,2.53,0.44,3.36,3.03,3.5v0.61h-9.12c-10.03,0-7.98-9.28-11.87-9.28h-0.61v5.17c0,2.53,0.47,3.36,3.06,3.5v0.61h-9.12v-0.61
		c2.59-0.14,3.03-0.97,3.03-3.5V7.09c0-2.53-0.44-3.36-3.03-3.5V2.97h9.12c5.11,0,6.98,2.2,6.98,4.86c0,3.14-2.22,4.98-6.59,5.25
		c4.39,1.5,5.59,8.73,9.64,8.73c1.97,0,2.42-0.97,2.42-3.5V7.09c0-2.53-0.45-3.36-3.03-3.5V2.97z M81.48,12.39
		c3.45,0,4.56-1.75,4.56-4.34c0-2.39-0.89-4.34-3.95-4.34c-2.58,0-2.75,0.97-2.75,3.36v5.31H81.48z M127.4,21.82v0.61h-9.12v-0.61
		c2.58-0.14,3.17-0.97,3.03-3.5L120.7,6.17l-5.92,16.26h-2.28l-6.09-16.26l-0.31,12.15c-0.06,2.53,0.47,3.36,2.89,3.5v0.61h-7.28
		v-0.61c2.58-0.14,2.92-0.97,3.03-3.5l0.61-11.23c0.11-2.53-0.47-3.36-3.06-3.5V2.97h6.25l6.2,16.84l5.64-16.84h6.39v0.61
		c-2.58,0.14-3.17,0.97-3.03,3.5l0.61,11.23C124.48,20.84,124.81,21.68,127.4,21.82z"/>
	<g>
		<path d="M23.56,40.09h0.61l-0.31,4.25c-1.53,0.61-3.39,1.22-6.23,1.22c-5.14,0-10.65-3.17-10.65-10.03
			c0-6.87,5.5-10.03,10.65-10.03c2.64,0,4.56,0.44,6.23,1.22l0.31,4.09h-0.61c-1.22-3.2-3.28-4.56-5.92-4.56
			c-4.48,0-7.31,3.39-7.31,9.28c0,5.89,2.84,9.28,7.31,9.28C20.28,44.82,22.34,43.9,23.56,40.09"/>
		<path d="M47.46,35.53c0,6.86-5.5,10.03-10.51,10.03c-4.97,0-10.48-3.17-10.48-10.03c0-6.87,5.5-10.03,10.48-10.03
			C41.96,25.5,47.46,28.67,47.46,35.53 M44.1,35.53c0-5.89-2.83-9.28-7.14-9.28c-4.31,0-7.14,3.39-7.14,9.28
			c0,5.89,2.84,9.28,7.14,9.28C41.26,44.82,44.1,41.42,44.1,35.53z"/>
		<path d="M87.54,44.65v0.61h-8.37v-0.61c1.42-0.14,1.64-0.75,0.17-2.28l-6.25-6.39v5.17c0,2.53,0.47,3.36,3.06,3.5v0.61h-9.12
			c-10.03,0-7.98-9.28-11.87-9.28h-0.61v5.17c0,2.53,0.47,3.36,3.06,3.5v0.61h-9.14v-0.61c2.58-0.14,3.06-0.97,3.06-3.5V29.92
			c0-2.53-0.47-3.36-3.06-3.5V25.8h9.14c5.09,0,6.98,2.2,6.98,4.86c0,3.14-2.22,4.98-6.59,5.25c4.39,1.5,5.59,8.73,9.64,8.73
			c1.97,0,2.42-0.97,2.42-3.5V29.92c0-2.53-0.44-3.36-3.03-3.5V25.8h9.12v0.61c-2.59,0.14-3.06,0.97-3.06,3.5v5.75L80.26,29
			c1.42-1.33,1.83-2.45,0-2.58V25.8h6.67v0.61c-1.67,0.14-3.5,1.25-5,2.58l-6.06,5.39l6.67,7.06
			C84.18,43.23,86.01,44.51,87.54,44.65 M56.69,35.23c3.42,0,4.56-1.75,4.56-4.34c0-2.39-0.89-4.34-3.95-4.34
			c-2.58,0-2.75,0.97-2.75,3.36v5.31H56.69z"/>
	</g>
</g>
<g>
	<g>
		<path d="M14.7,63.33c-1.01,0-1.91,0.24-2.7,0.71c-0.79,0.47-1.4,1.13-1.83,1.96s-0.65,1.79-0.65,2.87c0,1.14,0.2,2.14,0.6,3
			c0.4,0.87,0.98,1.54,1.75,2.02c0.77,0.48,1.69,0.72,2.76,0.72c1.17,0,2.16-0.28,2.97-0.84c0.81-0.56,1.37-1.37,1.69-2.43
			l1.35,0.29c-0.27,0.88-0.68,1.62-1.25,2.22s-1.25,1.05-2.05,1.36c-0.8,0.31-1.68,0.46-2.65,0.46c-1.37,0-2.56-0.27-3.55-0.82
			S9.4,73.52,8.87,72.5c-0.53-1.02-0.79-2.22-0.79-3.61c0-1.31,0.28-2.46,0.83-3.46s1.34-1.77,2.35-2.32
			c1.01-0.55,2.17-0.83,3.48-0.83c1.42,0,2.61,0.3,3.58,0.89c0.97,0.59,1.66,1.45,2.06,2.58l-1.35,0.29
			c-0.34-0.89-0.88-1.56-1.61-2.02C16.69,63.56,15.78,63.33,14.7,63.33z"/>
		<path d="M22.31,70.77c0-1.05,0.2-1.94,0.6-2.68c0.4-0.74,0.96-1.29,1.67-1.67s1.54-0.56,2.48-0.56c0.95,0,1.79,0.19,2.5,0.56
			c0.72,0.37,1.27,0.93,1.67,1.66c0.4,0.73,0.59,1.62,0.59,2.66s-0.2,1.93-0.59,2.67c-0.39,0.74-0.95,1.3-1.67,1.68
			c-0.72,0.38-1.55,0.57-2.51,0.57c-0.94,0-1.77-0.19-2.48-0.57c-0.72-0.38-1.27-0.94-1.67-1.68S22.31,71.8,22.31,70.77z
			 M27.03,66.83c-0.66,0-1.24,0.15-1.75,0.44c-0.51,0.29-0.91,0.74-1.21,1.33s-0.44,1.31-0.44,2.17c0,0.87,0.14,1.59,0.43,2.18
			s0.69,1.03,1.2,1.32c0.51,0.29,1.1,0.44,1.78,0.44c0.67,0,1.27-0.15,1.78-0.44c0.52-0.29,0.92-0.73,1.21-1.33s0.44-1.32,0.44-2.19
			c0-0.84-0.14-1.55-0.43-2.13s-0.69-1.03-1.21-1.33C28.32,66.98,27.72,66.83,27.03,66.83z"/>
		<path d="M37.77,67.01c-0.54,0-1,0.14-1.38,0.43c-0.38,0.29-0.67,0.69-0.85,1.21c-0.19,0.52-0.29,1.11-0.29,1.79v5.02h-1.29v-9.37
			h1.21v1.49l0.02-0.01c0.33-0.58,0.71-1,1.12-1.28s0.92-0.42,1.52-0.42c0.29,0,0.55,0.03,0.8,0.08c0.25,0.06,0.53,0.15,0.84,0.3
			l-0.43,1.06C38.57,67.11,38.15,67.01,37.77,67.01z"/>
		<path d="M42.31,70.28l4.92-4.2h1.66l-4.16,3.54l4.49,5.83H47.6l-3.8-5.1l-1.49,1.23v3.88h-1.29V62.5h1.29V70.28z"/>
		<path d="M59.47,66.83c-0.45,0-0.86,0.06-1.21,0.18c-0.35,0.12-0.63,0.3-0.83,0.53s-0.29,0.49-0.29,0.8c0,0.32,0.08,0.59,0.25,0.8
			c0.16,0.21,0.44,0.39,0.84,0.53s0.95,0.27,1.67,0.38c0.9,0.15,1.62,0.34,2.16,0.57s0.94,0.52,1.19,0.88
			c0.25,0.35,0.38,0.79,0.38,1.32c0,0.55-0.17,1.04-0.49,1.47c-0.33,0.43-0.79,0.77-1.38,1.02s-1.27,0.37-2.03,0.37
			c-1.15,0-2.07-0.23-2.76-0.68c-0.69-0.45-1.14-1.13-1.34-2.02l1.27-0.18c0.31,1.28,1.25,1.92,2.82,1.92
			c0.53,0,0.99-0.08,1.38-0.22c0.39-0.15,0.69-0.36,0.9-0.63c0.21-0.27,0.31-0.57,0.31-0.91c0-0.37-0.1-0.67-0.31-0.9
			c-0.21-0.23-0.53-0.42-0.97-0.56c-0.44-0.14-1.05-0.27-1.82-0.4c-1.12-0.17-1.95-0.47-2.5-0.89s-0.82-1-0.82-1.74
			c0-0.5,0.15-0.94,0.44-1.33c0.29-0.39,0.71-0.7,1.25-0.92c0.54-0.22,1.17-0.33,1.89-0.33c1.03,0,1.87,0.19,2.52,0.58
			c0.66,0.39,1.09,0.95,1.3,1.7l-1.26,0.16c-0.12-0.47-0.4-0.83-0.84-1.09C60.75,66.96,60.17,66.83,59.47,66.83z"/>
		<path d="M69.69,66.08v0.93h-2v6.15c0,0.4,0.04,0.7,0.11,0.91c0.08,0.2,0.2,0.34,0.36,0.41c0.16,0.07,0.39,0.1,0.68,0.1
			c0.3,0,0.6-0.04,0.9-0.12l0.18,0.98c-0.57,0.08-1,0.12-1.3,0.12c-0.63,0-1.1-0.09-1.42-0.26c-0.32-0.17-0.53-0.43-0.64-0.78
			c-0.11-0.35-0.17-0.84-0.17-1.46v-6.05h-1.52v-0.93h1.52v-2.24l1.29-0.81v3.06H69.69z"/>
		<path d="M71.18,70.77c0-1.05,0.2-1.94,0.6-2.68c0.4-0.74,0.96-1.29,1.67-1.67s1.54-0.56,2.48-0.56c0.95,0,1.79,0.19,2.5,0.56
			c0.72,0.37,1.27,0.93,1.67,1.66c0.4,0.73,0.59,1.62,0.59,2.66s-0.2,1.93-0.59,2.67c-0.39,0.74-0.95,1.3-1.67,1.68
			c-0.72,0.38-1.55,0.57-2.51,0.57c-0.94,0-1.77-0.19-2.48-0.57c-0.72-0.38-1.27-0.94-1.67-1.68S71.18,71.8,71.18,70.77z
			 M75.91,66.83c-0.66,0-1.24,0.15-1.75,0.44c-0.51,0.29-0.91,0.74-1.21,1.33s-0.44,1.31-0.44,2.17c0,0.87,0.14,1.59,0.43,2.18
			s0.69,1.03,1.2,1.32c0.51,0.29,1.1,0.44,1.78,0.44c0.67,0,1.27-0.15,1.78-0.44c0.52-0.29,0.92-0.73,1.21-1.33s0.44-1.32,0.44-2.19
			c0-0.84-0.14-1.55-0.43-2.13s-0.69-1.03-1.21-1.33C77.2,66.98,76.6,66.83,75.91,66.83z"/>
		<path d="M84.17,74.07h-0.04v4.96h-1.29V66.08h1.21v1.54l0.05-0.01c0.47-0.62,1.01-1.06,1.6-1.33s1.26-0.41,2-0.41
			c0.89,0,1.65,0.21,2.3,0.62c0.65,0.42,1.15,0.99,1.49,1.72c0.34,0.73,0.52,1.55,0.52,2.47c0,0.99-0.18,1.87-0.53,2.62
			s-0.86,1.33-1.52,1.75c-0.66,0.42-1.44,0.62-2.34,0.62c-0.77,0-1.43-0.12-1.98-0.38C85.08,75.05,84.59,74.64,84.17,74.07z
			 M87.51,66.83c-0.75,0-1.38,0.17-1.89,0.53c-0.52,0.35-0.9,0.83-1.16,1.45s-0.39,1.32-0.39,2.12c0,0.79,0.14,1.47,0.42,2.04
			c0.28,0.57,0.68,1,1.19,1.3c0.51,0.3,1.1,0.45,1.78,0.45c0.65,0,1.22-0.16,1.71-0.49c0.49-0.33,0.86-0.79,1.12-1.39
			s0.39-1.31,0.39-2.12c0-0.77-0.13-1.45-0.39-2.04s-0.63-1.04-1.11-1.36C88.7,66.99,88.15,66.83,87.51,66.83z"/>
		<path d="M95.48,74.07h-0.04v4.96h-1.29V66.08h1.21v1.54l0.05-0.01c0.47-0.62,1.01-1.06,1.6-1.33s1.26-0.41,2-0.41
			c0.89,0,1.65,0.21,2.3,0.62c0.65,0.42,1.15,0.99,1.49,1.72c0.34,0.73,0.52,1.55,0.52,2.47c0,0.99-0.18,1.87-0.53,2.62
			s-0.86,1.33-1.52,1.75c-0.66,0.42-1.44,0.62-2.34,0.62c-0.77,0-1.43-0.12-1.98-0.38C96.4,75.05,95.91,74.64,95.48,74.07z
			 M98.83,66.83c-0.75,0-1.38,0.17-1.89,0.53c-0.52,0.35-0.9,0.83-1.16,1.45s-0.39,1.32-0.39,2.12c0,0.79,0.14,1.47,0.42,2.04
			c0.28,0.57,0.68,1,1.19,1.3c0.51,0.3,1.1,0.45,1.78,0.45c0.65,0,1.22-0.16,1.71-0.49c0.49-0.33,0.86-0.79,1.12-1.39
			S102,71.51,102,70.7c0-0.77-0.13-1.45-0.39-2.04s-0.63-1.04-1.11-1.36C100.02,66.99,99.46,66.83,98.83,66.83z"/>
		<path d="M109.68,74.71c0.71,0,1.33-0.17,1.85-0.51c0.52-0.34,0.9-0.81,1.13-1.41l1.27,0.18c-0.34,0.88-0.89,1.55-1.64,2.01
			c-0.75,0.46-1.66,0.69-2.71,0.69c-0.97,0-1.82-0.2-2.53-0.59c-0.72-0.39-1.27-0.96-1.65-1.69s-0.58-1.58-0.58-2.55
			c0-1.02,0.19-1.9,0.58-2.65c0.39-0.75,0.94-1.32,1.65-1.72s1.55-0.6,2.51-0.6c1.07,0,1.94,0.22,2.62,0.66s1.18,1.04,1.49,1.81
			s0.47,1.65,0.47,2.64h-8.01c0.03,0.77,0.19,1.44,0.48,2c0.3,0.56,0.71,0.99,1.23,1.29C108.39,74.56,109,74.71,109.68,74.71z
			 M109.55,66.82c-0.61,0-1.16,0.13-1.64,0.38c-0.48,0.25-0.87,0.62-1.16,1.1c-0.3,0.48-0.48,1.06-0.55,1.73h6.64
			c-0.12-1.06-0.46-1.86-1.01-2.4C111.27,67.09,110.51,66.82,109.55,66.82z"/>
		<path d="M120.08,67.01c-0.54,0-1,0.14-1.38,0.43c-0.38,0.29-0.67,0.69-0.85,1.21c-0.19,0.52-0.29,1.11-0.29,1.79v5.02h-1.29v-9.37
			h1.21v1.49l0.02-0.01c0.33-0.58,0.71-1,1.12-1.28s0.92-0.42,1.52-0.42c0.29,0,0.55,0.03,0.8,0.08c0.25,0.06,0.53,0.15,0.84,0.3
			l-0.43,1.06C120.88,67.11,120.46,67.01,120.08,67.01z"/>
		<path d="M126.36,66.83c-0.45,0-0.86,0.06-1.21,0.18c-0.35,0.12-0.63,0.3-0.83,0.53s-0.29,0.49-0.29,0.8c0,0.32,0.08,0.59,0.25,0.8
			c0.16,0.21,0.44,0.39,0.84,0.53s0.95,0.27,1.67,0.38c0.9,0.15,1.62,0.34,2.16,0.57s0.94,0.52,1.19,0.88
			c0.25,0.35,0.38,0.79,0.38,1.32c0,0.55-0.17,1.04-0.49,1.47c-0.33,0.43-0.79,0.77-1.38,1.02s-1.27,0.37-2.03,0.37
			c-1.15,0-2.07-0.23-2.76-0.68c-0.69-0.45-1.14-1.13-1.34-2.02l1.27-0.18c0.31,1.28,1.25,1.92,2.82,1.92
			c0.53,0,0.99-0.08,1.38-0.22c0.39-0.15,0.69-0.36,0.9-0.63c0.21-0.27,0.31-0.57,0.31-0.91c0-0.37-0.1-0.67-0.31-0.9
			c-0.21-0.23-0.53-0.42-0.97-0.56c-0.44-0.14-1.05-0.27-1.82-0.4c-1.12-0.17-1.95-0.47-2.5-0.89s-0.82-1-0.82-1.74
			c0-0.5,0.15-0.94,0.44-1.33c0.29-0.39,0.71-0.7,1.25-0.92c0.54-0.22,1.17-0.33,1.89-0.33c1.03,0,1.87,0.19,2.52,0.58
			c0.66,0.39,1.09,0.95,1.3,1.7l-1.26,0.16c-0.12-0.47-0.4-0.83-0.84-1.09C127.64,66.96,127.06,66.83,126.36,66.83z"/>
		<path d="M139.45,74.07h-0.04v4.96h-1.29V66.08h1.21v1.54l0.05-0.01c0.47-0.62,1.01-1.06,1.6-1.33s1.26-0.41,2-0.41
			c0.89,0,1.65,0.21,2.3,0.62c0.65,0.42,1.15,0.99,1.49,1.72c0.34,0.73,0.52,1.55,0.52,2.47c0,0.99-0.18,1.87-0.53,2.62
			s-0.86,1.33-1.52,1.75c-0.66,0.42-1.44,0.62-2.34,0.62c-0.77,0-1.43-0.12-1.98-0.38C140.37,75.05,139.88,74.64,139.45,74.07z
			 M142.8,66.83c-0.75,0-1.38,0.17-1.89,0.53c-0.52,0.35-0.9,0.83-1.16,1.45s-0.39,1.32-0.39,2.12c0,0.79,0.14,1.47,0.42,2.04
			c0.28,0.57,0.68,1,1.19,1.3c0.51,0.3,1.1,0.45,1.78,0.45c0.65,0,1.22-0.16,1.71-0.49c0.49-0.33,0.86-0.79,1.12-1.39
			s0.39-1.31,0.39-2.12c0-0.77-0.13-1.45-0.39-2.04s-0.63-1.04-1.11-1.36C143.99,66.99,143.43,66.83,142.8,66.83z"/>
		<path d="M153.24,67.01c-0.54,0-1,0.14-1.38,0.43c-0.38,0.29-0.67,0.69-0.85,1.21c-0.19,0.52-0.29,1.11-0.29,1.79v5.02h-1.29v-9.37
			h1.21v1.49l0.02-0.01c0.33-0.58,0.71-1,1.12-1.28s0.92-0.42,1.52-0.42c0.29,0,0.55,0.03,0.8,0.08c0.25,0.06,0.53,0.15,0.84,0.3
			l-0.43,1.06C154.05,67.11,153.62,67.01,153.24,67.01z"/>
		<path d="M156.31,64.08V62.5h1.29v1.57H156.31z M156.31,75.45v-9.37h1.29v9.37H156.31z"/>
		<path d="M167.31,69.2c0-0.75-0.22-1.33-0.65-1.74c-0.43-0.4-1.06-0.6-1.87-0.6c-0.61,0-1.16,0.13-1.64,0.4
			c-0.48,0.27-0.85,0.63-1.1,1.08c-0.25,0.43-0.37,1.05-0.37,1.87v5.24h-1.29v-9.37h1.21v1.49c0.36-0.54,0.83-0.96,1.42-1.26
			c0.59-0.3,1.24-0.45,1.95-0.45c1.16,0,2.06,0.28,2.69,0.83c0.63,0.55,0.95,1.33,0.95,2.34v6.41h-1.29V69.2z"/>
		<path d="M175.16,66.08v0.93h-2v6.15c0,0.4,0.04,0.7,0.11,0.91c0.08,0.2,0.2,0.34,0.36,0.41c0.16,0.07,0.39,0.1,0.68,0.1
			c0.3,0,0.6-0.04,0.9-0.12l0.18,0.98c-0.57,0.08-1,0.12-1.3,0.12c-0.63,0-1.1-0.09-1.42-0.26c-0.32-0.17-0.53-0.43-0.64-0.78
			c-0.11-0.35-0.17-0.84-0.17-1.46v-6.05h-1.52v-0.93h1.52v-2.24l1.29-0.81v3.06H175.16z"/>
		<path d="M177.29,64.08V62.5h1.29v1.57H177.29z M177.29,75.45v-9.37h1.29v9.37H177.29z"/>
		<path d="M188.29,69.2c0-0.75-0.22-1.33-0.65-1.74c-0.43-0.4-1.06-0.6-1.87-0.6c-0.61,0-1.16,0.13-1.64,0.4
			c-0.48,0.27-0.85,0.63-1.1,1.08c-0.25,0.43-0.37,1.05-0.37,1.87v5.24h-1.29v-9.37h1.21v1.49c0.36-0.54,0.83-0.96,1.42-1.26
			c0.59-0.3,1.24-0.45,1.95-0.45c1.16,0,2.06,0.28,2.69,0.83c0.63,0.55,0.95,1.33,0.95,2.34v6.41h-1.29V69.2z"/>
		<path d="M200.79,66.08v8.65c0,1.51-0.37,2.65-1.11,3.4c-0.74,0.75-1.9,1.13-3.49,1.13c-1.14,0-2.05-0.23-2.73-0.68
			s-1.07-1.09-1.17-1.91l1.25,0.17c0.13,0.49,0.41,0.85,0.85,1.1c0.44,0.24,1.03,0.37,1.77,0.37c0.84,0,1.5-0.13,1.98-0.39
			c0.48-0.26,0.83-0.67,1.04-1.23s0.32-1.31,0.32-2.24v-0.47h-0.03c-0.77,1.07-1.87,1.6-3.29,1.6c-0.89,0-1.68-0.2-2.36-0.61
			s-1.21-0.97-1.58-1.71c-0.37-0.73-0.56-1.57-0.56-2.52c0-0.95,0.19-1.79,0.56-2.53c0.38-0.74,0.9-1.31,1.58-1.72
			s1.46-0.61,2.35-0.61c0.75,0,1.41,0.14,1.97,0.43c0.56,0.29,1.02,0.69,1.37,1.2h0.06v-1.42H200.79z M196.22,66.82
			c-0.65,0-1.21,0.16-1.7,0.49c-0.49,0.33-0.86,0.78-1.12,1.37c-0.26,0.59-0.39,1.26-0.39,2.01c0,0.79,0.13,1.48,0.4,2.07
			c0.27,0.59,0.65,1.05,1.14,1.36c0.49,0.32,1.06,0.48,1.71,0.48c0.69,0,1.28-0.16,1.78-0.48c0.5-0.32,0.89-0.78,1.15-1.36
			s0.4-1.27,0.4-2.06s-0.13-1.47-0.4-2.05c-0.27-0.58-0.66-1.03-1.17-1.35C197.52,66.98,196.92,66.82,196.22,66.82z"/>
		<path d="M210.27,74.07h-0.04v4.96h-1.29V66.08h1.21v1.54l0.05-0.01c0.47-0.62,1.01-1.06,1.6-1.33s1.26-0.41,2-0.41
			c0.89,0,1.65,0.21,2.3,0.62c0.65,0.42,1.15,0.99,1.49,1.72c0.34,0.73,0.52,1.55,0.52,2.47c0,0.99-0.18,1.87-0.53,2.62
			s-0.86,1.33-1.52,1.75c-0.66,0.42-1.44,0.62-2.34,0.62c-0.77,0-1.43-0.12-1.98-0.38C211.18,75.05,210.69,74.64,210.27,74.07z
			 M213.61,66.83c-0.75,0-1.38,0.17-1.89,0.53c-0.52,0.35-0.9,0.83-1.16,1.45s-0.39,1.32-0.39,2.12c0,0.79,0.14,1.47,0.42,2.04
			c0.28,0.57,0.68,1,1.19,1.3c0.51,0.3,1.1,0.45,1.78,0.45c0.65,0,1.22-0.16,1.71-0.49c0.49-0.33,0.86-0.79,1.12-1.39
			s0.39-1.31,0.39-2.12c0-0.77-0.13-1.45-0.39-2.04s-0.63-1.04-1.11-1.36C214.8,66.99,214.25,66.83,213.61,66.83z"/>
		<path d="M224.06,67.01c-0.54,0-1,0.14-1.38,0.43c-0.38,0.29-0.67,0.69-0.85,1.21c-0.19,0.52-0.29,1.11-0.29,1.79v5.02h-1.29v-9.37
			h1.21v1.49l0.02-0.01c0.33-0.58,0.71-1,1.12-1.28s0.92-0.42,1.52-0.42c0.29,0,0.55,0.03,0.8,0.08c0.25,0.06,0.53,0.15,0.84,0.3
			l-0.43,1.06C224.86,67.11,224.44,67.01,224.06,67.01z"/>
		<path d="M226.49,70.77c0-1.05,0.2-1.94,0.6-2.68c0.4-0.74,0.96-1.29,1.67-1.67s1.54-0.56,2.48-0.56c0.95,0,1.79,0.19,2.5,0.56
			c0.72,0.37,1.27,0.93,1.67,1.66c0.4,0.73,0.59,1.62,0.59,2.66s-0.2,1.93-0.59,2.67c-0.39,0.74-0.95,1.3-1.67,1.68
			c-0.72,0.38-1.55,0.57-2.51,0.57c-0.94,0-1.77-0.19-2.48-0.57c-0.72-0.38-1.27-0.94-1.67-1.68S226.49,71.8,226.49,70.77z
			 M231.22,66.83c-0.66,0-1.24,0.15-1.75,0.44c-0.51,0.29-0.91,0.74-1.21,1.33s-0.44,1.31-0.44,2.17c0,0.87,0.14,1.59,0.43,2.18
			s0.69,1.03,1.2,1.32c0.51,0.29,1.1,0.44,1.78,0.44c0.67,0,1.27-0.15,1.78-0.44c0.52-0.29,0.92-0.73,1.21-1.33s0.44-1.32,0.44-2.19
			c0-0.84-0.14-1.55-0.43-2.13s-0.69-1.03-1.21-1.33C232.51,66.98,231.9,66.83,231.22,66.83z"/>
		<path d="M239.52,76.45c0,0.65-0.07,1.17-0.21,1.58s-0.38,0.71-0.71,0.91s-0.78,0.3-1.35,0.3c-0.19,0-0.39-0.02-0.62-0.05
			c-0.22-0.03-0.44-0.08-0.64-0.15l0.24-0.96c0.24,0.07,0.5,0.11,0.78,0.11c0.34,0,0.6-0.05,0.77-0.14
			c0.17-0.09,0.29-0.26,0.36-0.51c0.07-0.24,0.1-0.61,0.1-1.11V66.08h1.29V76.45z M239.52,64.16h-1.29V62.5h1.29V64.16z"/>
		<path d="M246.52,74.71c0.71,0,1.33-0.17,1.85-0.51c0.52-0.34,0.9-0.81,1.13-1.41l1.27,0.18c-0.34,0.88-0.89,1.55-1.64,2.01
			c-0.75,0.46-1.66,0.69-2.71,0.69c-0.97,0-1.82-0.2-2.53-0.59c-0.72-0.39-1.27-0.96-1.65-1.69s-0.58-1.58-0.58-2.55
			c0-1.02,0.19-1.9,0.58-2.65c0.39-0.75,0.94-1.32,1.65-1.72s1.55-0.6,2.51-0.6c1.07,0,1.94,0.22,2.62,0.66s1.18,1.04,1.49,1.81
			s0.47,1.65,0.47,2.64h-8.01c0.03,0.77,0.19,1.44,0.48,2c0.3,0.56,0.71,0.99,1.23,1.29C245.23,74.56,245.83,74.71,246.52,74.71z
			 M246.39,66.82c-0.61,0-1.16,0.13-1.64,0.38c-0.48,0.25-0.87,0.62-1.16,1.1c-0.3,0.48-0.48,1.06-0.55,1.73h6.64
			c-0.12-1.06-0.46-1.86-1.01-2.4C248.1,67.09,247.35,66.82,246.39,66.82z"/>
		<path d="M257.12,66.83c-0.63,0-1.2,0.15-1.71,0.44c-0.51,0.29-0.9,0.74-1.19,1.33s-0.43,1.32-0.43,2.18c0,0.78,0.13,1.46,0.4,2.05
			c0.27,0.59,0.66,1.05,1.17,1.38s1.11,0.49,1.81,0.49c0.79,0,1.46-0.2,1.99-0.6c0.54-0.4,0.94-1.03,1.2-1.89l1.29,0.21
			c-0.33,1.08-0.88,1.89-1.63,2.43c-0.75,0.54-1.73,0.81-2.92,0.81c-0.96,0-1.79-0.21-2.49-0.63c-0.7-0.42-1.24-1-1.61-1.74
			c-0.37-0.74-0.55-1.59-0.55-2.55c0-0.97,0.19-1.83,0.58-2.57c0.39-0.74,0.94-1.31,1.65-1.71s1.54-0.6,2.49-0.6
			c1.16,0,2.09,0.24,2.79,0.72s1.22,1.19,1.54,2.13l-1.29,0.21C259.8,67.53,258.76,66.83,257.12,66.83z"/>
		<path d="M267.57,66.08v0.93h-2v6.15c0,0.4,0.04,0.7,0.11,0.91c0.08,0.2,0.2,0.34,0.36,0.41c0.16,0.07,0.39,0.1,0.68,0.1
			c0.3,0,0.6-0.04,0.9-0.12l0.18,0.98c-0.57,0.08-1,0.12-1.3,0.12c-0.63,0-1.1-0.09-1.42-0.26c-0.32-0.17-0.53-0.43-0.64-0.78
			c-0.11-0.35-0.17-0.84-0.17-1.46v-6.05h-1.52v-0.93h1.52v-2.24l1.29-0.81v3.06H267.57z"/>
	</g>
</g>
<g>
	<path d="M11.13,114.23c-0.43,0-0.8,0.11-1.11,0.34s-0.53,0.55-0.69,0.95c-0.15,0.4-0.23,0.86-0.23,1.38c0,0.56,0.08,1.04,0.24,1.45
		s0.39,0.73,0.69,0.95c0.3,0.22,0.66,0.34,1.08,0.34c0.29,0,0.57-0.06,0.82-0.19s0.46-0.31,0.64-0.55c0.18-0.24,0.31-0.52,0.39-0.85
		l1.57,0.37c-0.12,0.52-0.33,0.97-0.64,1.36c-0.3,0.39-0.69,0.69-1.15,0.9s-1,0.32-1.59,0.32c-0.77,0-1.44-0.16-1.99-0.49
		s-0.97-0.8-1.26-1.43c-0.29-0.62-0.44-1.36-0.44-2.22c0-0.82,0.15-1.53,0.45-2.14c0.3-0.6,0.73-1.07,1.28-1.39s1.21-0.48,1.96-0.48
		c0.86,0,1.57,0.19,2.12,0.58c0.56,0.39,0.94,0.96,1.17,1.73l-1.57,0.38C12.61,114.67,12.03,114.23,11.13,114.23z"/>
	<path d="M18.09,119.85c0.19,0,0.37-0.04,0.55-0.13c0.18-0.09,0.33-0.24,0.45-0.47c0.12-0.23,0.18-0.53,0.18-0.91v-3.17h1.51v5.7
		h-1.41v-0.75c-0.2,0.28-0.45,0.5-0.75,0.65c-0.3,0.15-0.63,0.23-0.98,0.23c-0.63,0-1.12-0.17-1.45-0.5
		c-0.33-0.34-0.5-0.81-0.5-1.42v-3.91h1.51v3.56c0,0.38,0.07,0.66,0.21,0.84S17.78,119.85,18.09,119.85z"/>
	<path d="M24.26,116.12c-0.24,0-0.43,0.04-0.58,0.13c-0.15,0.08-0.22,0.2-0.22,0.35c0,0.11,0.04,0.21,0.1,0.28
		c0.07,0.08,0.19,0.15,0.37,0.21c0.18,0.06,0.42,0.12,0.74,0.17c0.72,0.12,1.26,0.33,1.6,0.61c0.34,0.29,0.52,0.69,0.52,1.22
		c0,0.37-0.1,0.69-0.29,0.99c-0.19,0.29-0.47,0.52-0.84,0.69c-0.36,0.16-0.79,0.25-1.28,0.25c-0.75,0-1.34-0.15-1.77-0.45
		c-0.43-0.3-0.69-0.74-0.78-1.31l1.41-0.23c0.06,0.3,0.19,0.53,0.37,0.68c0.18,0.15,0.44,0.23,0.77,0.23c0.29,0,0.52-0.05,0.69-0.16
		s0.26-0.26,0.26-0.45c0-0.1-0.03-0.19-0.09-0.27c-0.06-0.07-0.16-0.14-0.32-0.2s-0.37-0.11-0.66-0.15
		c-0.79-0.12-1.37-0.34-1.72-0.67s-0.54-0.75-0.54-1.29c0-0.35,0.09-0.65,0.27-0.91s0.44-0.46,0.79-0.59
		c0.34-0.14,0.75-0.21,1.22-0.21c0.67,0,1.2,0.13,1.61,0.4s0.66,0.64,0.74,1.13l-1.44,0.21c-0.04-0.21-0.15-0.37-0.31-0.49
		C24.72,116.18,24.51,116.12,24.26,116.12z"/>
	<path d="M30.64,115.17v1.2h-1.06v2.78c0,0.16,0.01,0.29,0.03,0.37c0.02,0.08,0.06,0.14,0.12,0.18c0.06,0.03,0.15,0.05,0.27,0.05
		c0.19,0,0.38-0.03,0.6-0.09l0.19,1.17c-0.16,0.05-0.35,0.1-0.55,0.13s-0.4,0.05-0.61,0.05c-0.4,0-0.71-0.06-0.94-0.17
		s-0.39-0.29-0.48-0.54c-0.1-0.25-0.14-0.6-0.14-1.04v-2.88h-0.81v-1.2h0.81v-1.04l1.51-1.07v2.11H30.64z"/>
	<path d="M31.36,117.99c0-0.56,0.11-1.06,0.34-1.51s0.56-0.8,0.99-1.05s0.94-0.38,1.53-0.38c0.6,0,1.12,0.13,1.55,0.38
		c0.44,0.26,0.77,0.61,1,1.05c0.23,0.45,0.34,0.95,0.34,1.52c0,0.59-0.11,1.11-0.34,1.56c-0.23,0.45-0.56,0.81-0.99,1.06
		c-0.43,0.26-0.95,0.38-1.54,0.38s-1.11-0.13-1.54-0.38c-0.43-0.26-0.76-0.61-0.99-1.07S31.36,118.58,31.36,117.99z M34.22,116.27
		c-0.25,0-0.48,0.07-0.67,0.21c-0.2,0.14-0.35,0.34-0.47,0.61s-0.17,0.58-0.17,0.93c0,0.35,0.05,0.66,0.16,0.93
		c0.11,0.26,0.26,0.47,0.46,0.61c0.2,0.14,0.43,0.21,0.7,0.21s0.5-0.07,0.71-0.21c0.2-0.14,0.36-0.34,0.47-0.61s0.17-0.58,0.17-0.94
		c0-0.35-0.05-0.65-0.16-0.91s-0.26-0.46-0.46-0.61C34.74,116.35,34.5,116.27,34.22,116.27z"/>
	<path d="M44.62,115.04c0.59,0,1.05,0.17,1.36,0.51c0.31,0.34,0.46,0.88,0.46,1.61v3.71h-1.51v-3.68c0-0.31-0.06-0.56-0.19-0.73
		s-0.32-0.26-0.57-0.26c-0.21,0-0.4,0.06-0.56,0.19c-0.16,0.12-0.29,0.3-0.38,0.53s-0.13,0.51-0.13,0.84v3.12h-1.51v-3.6
		c0-0.34-0.06-0.6-0.17-0.79c-0.11-0.19-0.3-0.28-0.57-0.28c-0.73,0-1.1,0.52-1.1,1.56v3.12h-1.51v-5.7h1.41v0.73h0.01
		c0.22-0.29,0.47-0.5,0.74-0.64c0.28-0.14,0.6-0.21,0.97-0.21c0.72,0,1.24,0.3,1.56,0.9c0.24-0.3,0.5-0.53,0.78-0.68
		C43.99,115.12,44.29,115.04,44.62,115.04z"/>
	<path d="M50.28,119.85c0.32,0,0.58-0.07,0.79-0.22c0.21-0.14,0.35-0.34,0.43-0.58l1.5,0.24c-0.2,0.56-0.53,0.98-0.98,1.27
		s-1,0.44-1.66,0.44c-0.62,0-1.14-0.12-1.56-0.37s-0.74-0.59-0.95-1.03c-0.21-0.44-0.32-0.96-0.32-1.55c0-0.55,0.11-1.05,0.33-1.51
		c0.22-0.46,0.54-0.82,0.96-1.1s0.93-0.41,1.51-0.41c0.56,0,1.04,0.12,1.45,0.35c0.41,0.23,0.73,0.58,0.95,1.03
		c0.23,0.45,0.34,1,0.34,1.64v0.46h-4.01c0.04,0.42,0.16,0.75,0.37,0.98S49.93,119.85,50.28,119.85z M49.07,117.43h2.5
		c-0.04-0.4-0.16-0.7-0.38-0.91s-0.5-0.32-0.85-0.32c-0.34,0-0.62,0.11-0.85,0.33C49.26,116.74,49.12,117.04,49.07,117.43z"/>
	<path d="M56.88,116.41c-0.38,0-0.67,0.15-0.88,0.46s-0.3,0.74-0.3,1.31v2.69h-1.51v-5.7h1.4v0.81h0.02
		c0.2-0.33,0.41-0.57,0.64-0.72c0.23-0.14,0.5-0.22,0.82-0.22c0.19,0,0.37,0.02,0.53,0.07c0.16,0.04,0.32,0.11,0.47,0.19l-0.48,1.34
		c-0.08-0.05-0.19-0.11-0.33-0.16C57.11,116.43,56.99,116.41,56.88,116.41z"/>
	<path d="M58.88,116.72v-1.55h1.55v1.55H58.88z M58.88,120.87v-1.55h1.55v1.55H58.88z"/>
</g>
<g>
	<path d="M11.13,156.75c-0.43,0-0.8,0.11-1.11,0.34s-0.53,0.55-0.69,0.95c-0.15,0.4-0.23,0.86-0.23,1.38c0,0.56,0.08,1.04,0.24,1.45
		s0.39,0.73,0.69,0.95c0.3,0.22,0.66,0.34,1.08,0.34c0.29,0,0.57-0.06,0.82-0.19s0.46-0.31,0.64-0.55c0.18-0.24,0.31-0.52,0.39-0.85
		l1.57,0.37c-0.12,0.52-0.33,0.97-0.64,1.36c-0.3,0.39-0.69,0.69-1.15,0.9s-1,0.32-1.59,0.32c-0.77,0-1.44-0.16-1.99-0.49
		s-0.97-0.8-1.26-1.43c-0.29-0.62-0.44-1.36-0.44-2.22c0-0.82,0.15-1.53,0.45-2.14c0.3-0.6,0.73-1.07,1.28-1.39s1.21-0.48,1.96-0.48
		c0.86,0,1.57,0.19,2.12,0.58c0.56,0.39,0.94,0.96,1.17,1.73l-1.57,0.38C12.61,157.19,12.03,156.75,11.13,156.75z"/>
	<path d="M15.34,160.51c0-0.56,0.11-1.06,0.34-1.51s0.56-0.8,0.99-1.05s0.94-0.38,1.53-0.38c0.6,0,1.12,0.13,1.55,0.38
		c0.44,0.26,0.77,0.61,1,1.05c0.23,0.45,0.34,0.95,0.34,1.52c0,0.59-0.11,1.11-0.34,1.56c-0.23,0.45-0.56,0.81-0.99,1.06
		c-0.43,0.26-0.95,0.38-1.54,0.38s-1.11-0.13-1.54-0.38c-0.43-0.26-0.76-0.61-0.99-1.07S15.34,161.1,15.34,160.51z M18.21,158.79
		c-0.25,0-0.48,0.07-0.67,0.21c-0.2,0.14-0.35,0.34-0.47,0.61s-0.17,0.58-0.17,0.93c0,0.35,0.05,0.66,0.16,0.93
		c0.11,0.26,0.26,0.47,0.46,0.61c0.2,0.14,0.43,0.21,0.7,0.21s0.5-0.07,0.71-0.21c0.2-0.14,0.36-0.34,0.47-0.61s0.17-0.58,0.17-0.94
		c0-0.35-0.05-0.65-0.16-0.91s-0.26-0.46-0.46-0.61C18.73,158.87,18.49,158.79,18.21,158.79z"/>
	<path d="M24.6,162.37c0.19,0,0.37-0.04,0.55-0.13c0.18-0.09,0.33-0.24,0.45-0.47c0.12-0.23,0.18-0.53,0.18-0.91v-3.17h1.51v5.7
		h-1.41v-0.75c-0.2,0.28-0.45,0.5-0.75,0.65c-0.3,0.15-0.63,0.23-0.98,0.23c-0.63,0-1.12-0.17-1.45-0.5
		c-0.33-0.34-0.5-0.81-0.5-1.42v-3.91h1.51v3.56c0,0.38,0.07,0.66,0.21,0.84S24.29,162.37,24.6,162.37z"/>
	<path d="M32.34,159.83c0-0.37-0.07-0.64-0.2-0.83c-0.14-0.19-0.36-0.28-0.68-0.28c-0.35,0-0.63,0.12-0.85,0.37
		c-0.22,0.25-0.33,0.63-0.33,1.14v3.16h-1.51v-5.7h1.41v0.75c0.2-0.29,0.45-0.5,0.75-0.65c0.3-0.15,0.62-0.22,0.98-0.22
		c0.63,0,1.11,0.17,1.44,0.5c0.33,0.33,0.5,0.8,0.5,1.41v3.92h-1.51V159.83z"/>
	<path d="M38.06,157.69v1.2h-1.06v2.78c0,0.16,0.01,0.29,0.03,0.37c0.02,0.08,0.06,0.14,0.12,0.18c0.06,0.03,0.15,0.05,0.27,0.05
		c0.19,0,0.38-0.03,0.6-0.09l0.19,1.17c-0.16,0.05-0.35,0.1-0.55,0.13s-0.4,0.05-0.61,0.05c-0.4,0-0.71-0.06-0.94-0.17
		s-0.39-0.29-0.48-0.54c-0.1-0.25-0.14-0.6-0.14-1.04v-2.88h-0.81v-1.2h0.81v-1.04l1.51-1.07v2.11H38.06z"/>
	<path d="M41.83,158.93c-0.38,0-0.67,0.15-0.88,0.46s-0.3,0.74-0.3,1.31v2.69h-1.51v-5.7h1.4v0.81h0.02
		c0.2-0.33,0.41-0.57,0.64-0.72c0.23-0.14,0.5-0.22,0.82-0.22c0.19,0,0.37,0.02,0.53,0.07c0.16,0.04,0.32,0.11,0.47,0.19l-0.48,1.34
		c-0.08-0.05-0.19-0.11-0.33-0.16C42.07,158.95,41.94,158.93,41.83,158.93z"/>
	<path d="M46.06,161.74h0.02c0.11-0.39,0.19-0.65,0.23-0.77l1.1-3.28h1.56l-2.19,5.87c-0.34,0.89-0.66,1.47-0.97,1.73
		c-0.32,0.27-0.77,0.41-1.34,0.41c-0.26,0-0.61-0.05-1.04-0.15l0.25-1.15c0.22,0.07,0.4,0.1,0.53,0.1c0.18,0,0.33-0.03,0.45-0.09
		c0.12-0.06,0.22-0.16,0.32-0.32c0.1-0.16,0.2-0.39,0.31-0.7l-2.18-5.71h1.61l1.11,3.24C45.88,161.13,45.96,161.4,46.06,161.74z"/>
	<path d="M49.95,159.24v-1.55h1.55v1.55H49.95z M49.95,163.39v-1.55h1.55v1.55H49.95z"/>
</g>
<g>
	<path d="M11.13,135.49c-0.43,0-0.8,0.11-1.11,0.34s-0.53,0.55-0.69,0.95c-0.15,0.4-0.23,0.86-0.23,1.38c0,0.56,0.08,1.04,0.24,1.45
		s0.39,0.73,0.69,0.95c0.3,0.22,0.66,0.34,1.08,0.34c0.29,0,0.57-0.06,0.82-0.19s0.46-0.31,0.64-0.55c0.18-0.24,0.31-0.52,0.39-0.85
		l1.57,0.37c-0.12,0.52-0.33,0.97-0.64,1.36c-0.3,0.39-0.69,0.69-1.15,0.9s-1,0.32-1.59,0.32c-0.77,0-1.44-0.16-1.99-0.49
		s-0.97-0.8-1.26-1.43c-0.29-0.62-0.44-1.36-0.44-2.22c0-0.82,0.15-1.53,0.45-2.14c0.3-0.6,0.73-1.07,1.28-1.39s1.21-0.48,1.96-0.48
		c0.86,0,1.57,0.19,2.12,0.58c0.56,0.39,0.94,0.96,1.17,1.73l-1.57,0.38C12.61,135.93,12.03,135.49,11.13,135.49z"/>
	<path d="M15.34,139.25c0-0.56,0.11-1.06,0.34-1.51s0.56-0.8,0.99-1.05s0.94-0.38,1.53-0.38c0.6,0,1.12,0.13,1.55,0.38
		c0.44,0.26,0.77,0.61,1,1.05c0.23,0.45,0.34,0.95,0.34,1.52c0,0.59-0.11,1.11-0.34,1.56c-0.23,0.45-0.56,0.81-0.99,1.06
		c-0.43,0.26-0.95,0.38-1.54,0.38s-1.11-0.13-1.54-0.38c-0.43-0.26-0.76-0.61-0.99-1.07S15.34,139.84,15.34,139.25z M18.21,137.53
		c-0.25,0-0.48,0.07-0.67,0.21c-0.2,0.14-0.35,0.34-0.47,0.61s-0.17,0.58-0.17,0.93c0,0.35,0.05,0.66,0.16,0.93
		c0.11,0.26,0.26,0.47,0.46,0.61c0.2,0.14,0.43,0.21,0.7,0.21s0.5-0.07,0.71-0.21c0.2-0.14,0.36-0.34,0.47-0.61s0.17-0.58,0.17-0.94
		c0-0.35-0.05-0.65-0.16-0.91s-0.26-0.46-0.46-0.61C18.73,137.61,18.49,137.53,18.21,137.53z"/>
	<path d="M28.61,136.3c0.59,0,1.05,0.17,1.36,0.51c0.31,0.34,0.46,0.88,0.46,1.61v3.71h-1.51v-3.68c0-0.31-0.06-0.56-0.19-0.73
		s-0.32-0.26-0.57-0.26c-0.21,0-0.4,0.06-0.56,0.19c-0.16,0.12-0.29,0.3-0.38,0.53s-0.13,0.51-0.13,0.84v3.12h-1.51v-3.6
		c0-0.34-0.06-0.6-0.17-0.79c-0.11-0.19-0.3-0.28-0.57-0.28c-0.73,0-1.1,0.52-1.1,1.56v3.12h-1.51v-5.7h1.41v0.73h0.01
		c0.22-0.29,0.47-0.5,0.74-0.64c0.28-0.14,0.6-0.21,0.97-0.21c0.72,0,1.24,0.3,1.56,0.9c0.24-0.3,0.5-0.53,0.78-0.68
		C27.98,136.38,28.28,136.3,28.61,136.3z"/>
	<path d="M34.27,141.11c0.32,0,0.58-0.07,0.79-0.22c0.21-0.14,0.35-0.34,0.43-0.58l1.5,0.24c-0.2,0.56-0.53,0.98-0.98,1.27
		s-1,0.44-1.66,0.44c-0.62,0-1.14-0.12-1.56-0.37s-0.74-0.59-0.95-1.03c-0.21-0.44-0.32-0.96-0.32-1.55c0-0.55,0.11-1.05,0.33-1.51
		c0.22-0.46,0.54-0.82,0.96-1.1s0.93-0.41,1.51-0.41c0.56,0,1.04,0.12,1.45,0.35c0.41,0.23,0.73,0.58,0.95,1.03
		c0.23,0.45,0.34,1,0.34,1.64v0.46h-4.01c0.04,0.42,0.16,0.75,0.37,0.98S33.92,141.11,34.27,141.11z M33.06,138.69h2.5
		c-0.04-0.4-0.16-0.7-0.38-0.91s-0.5-0.32-0.85-0.32c-0.34,0-0.62,0.11-0.85,0.33C33.24,138,33.11,138.3,33.06,138.69z"/>
	<path d="M40.87,137.67c-0.38,0-0.67,0.15-0.88,0.46s-0.3,0.74-0.3,1.31v2.69h-1.51v-5.7h1.4v0.81h0.02
		c0.2-0.33,0.41-0.57,0.64-0.72c0.23-0.14,0.5-0.22,0.82-0.22c0.19,0,0.37,0.02,0.53,0.07c0.16,0.04,0.32,0.11,0.47,0.19l-0.48,1.34
		c-0.08-0.05-0.19-0.11-0.33-0.16C41.1,137.69,40.97,137.67,40.87,137.67z"/>
	<path d="M45.16,137.51c-0.39,0-0.69,0.16-0.9,0.47c-0.21,0.31-0.31,0.75-0.31,1.31c0,0.52,0.1,0.94,0.31,1.26
		c0.21,0.32,0.52,0.48,0.92,0.48c0.28,0,0.52-0.09,0.7-0.28c0.18-0.19,0.31-0.46,0.36-0.81l1.48,0.26c-0.16,0.7-0.45,1.22-0.89,1.56
		c-0.44,0.34-1.01,0.51-1.73,0.51c-0.58,0-1.08-0.13-1.49-0.39c-0.41-0.26-0.71-0.61-0.92-1.06c-0.2-0.45-0.31-0.96-0.31-1.53
		c0-0.59,0.11-1.11,0.32-1.56s0.52-0.8,0.93-1.04c0.41-0.25,0.91-0.37,1.49-0.37c0.65,0,1.19,0.15,1.62,0.45s0.72,0.76,0.88,1.39
		l-1.48,0.27c-0.06-0.29-0.18-0.52-0.35-0.67C45.65,137.58,45.43,137.51,45.16,137.51z"/>
	<path d="M48.83,135.65v-1.4h1.51v1.4H48.83z M48.83,142.13v-5.7h1.51v5.7H48.83z"/>
	<path d="M56.78,142.13h-1.49c-0.08-0.16-0.14-0.37-0.18-0.63c-0.5,0.51-1.1,0.76-1.77,0.76c-0.37,0-0.7-0.07-0.98-0.21
		s-0.5-0.34-0.66-0.6c-0.15-0.26-0.23-0.56-0.23-0.89c0-0.5,0.16-0.91,0.49-1.2s0.84-0.5,1.53-0.61s1.17-0.21,1.45-0.31v-0.11
		c0-0.33-0.08-0.56-0.24-0.68c-0.16-0.12-0.4-0.19-0.72-0.19c-0.25,0-0.46,0.06-0.63,0.17s-0.3,0.3-0.38,0.54l-1.38-0.21
		c0.15-0.57,0.43-0.99,0.84-1.26c0.41-0.27,0.95-0.4,1.64-0.4c0.56,0,1.01,0.07,1.36,0.21c0.35,0.14,0.61,0.37,0.78,0.67
		s0.25,0.71,0.25,1.21v2.33c0,0.27,0.02,0.5,0.06,0.68S56.63,141.83,56.78,142.13z M53.78,139.69c-0.54,0.11-0.81,0.37-0.81,0.78
		c0,0.23,0.07,0.41,0.2,0.54s0.32,0.19,0.57,0.19s0.47-0.06,0.68-0.19c0.14-0.09,0.25-0.18,0.32-0.27c0.07-0.1,0.12-0.22,0.15-0.38
		s0.04-0.39,0.04-0.68v-0.27C54.67,139.5,54.28,139.59,53.78,139.69z"/>
	<path d="M57.88,142.13v-7.87h1.51v7.87H57.88z"/>
	<path d="M60.97,137.98v-1.55h1.55v1.55H60.97z M60.97,142.13v-1.55h1.55v1.55H60.97z"/>
</g>
<g>
	<g>
		<path d="M70.21,114.98v2.29h3.04v0.55h-3.04v2.5h3.43v0.55H69.6v-6.44h3.89v0.55H70.21z"/>
		<path d="M77.73,117.76c0-0.38-0.1-0.66-0.29-0.86s-0.46-0.3-0.82-0.3c-0.27,0-0.51,0.07-0.72,0.2c-0.21,0.13-0.37,0.31-0.49,0.54
			c-0.11,0.21-0.16,0.52-0.16,0.93v2.61h-0.57v-4.66h0.53v0.74c0.16-0.27,0.37-0.48,0.62-0.63s0.54-0.22,0.86-0.22
			c0.51,0,0.9,0.14,1.18,0.41c0.28,0.27,0.42,0.66,0.42,1.17v3.19h-0.57V117.76z"/>
		<path d="M79.22,118.54c0-0.52,0.09-0.97,0.26-1.33s0.42-0.64,0.73-0.83c0.31-0.19,0.68-0.28,1.09-0.28c0.42,0,0.79,0.09,1.1,0.28
			c0.31,0.19,0.56,0.46,0.73,0.83c0.17,0.37,0.26,0.81,0.26,1.33s-0.09,0.96-0.26,1.33c-0.17,0.37-0.42,0.65-0.73,0.83
			c-0.32,0.19-0.68,0.28-1.11,0.28c-0.41,0-0.78-0.09-1.09-0.28c-0.32-0.19-0.56-0.47-0.73-0.83S79.22,119.06,79.22,118.54z
			 M81.3,116.58c-0.29,0-0.55,0.07-0.77,0.22c-0.22,0.15-0.4,0.37-0.53,0.66c-0.13,0.29-0.19,0.65-0.19,1.08
			c0,0.43,0.06,0.79,0.19,1.09c0.13,0.29,0.3,0.51,0.53,0.66c0.22,0.15,0.49,0.22,0.78,0.22c0.3,0,0.56-0.07,0.78-0.22
			c0.23-0.14,0.41-0.36,0.53-0.66c0.13-0.29,0.19-0.66,0.19-1.09c0-0.42-0.06-0.77-0.19-1.06c-0.13-0.29-0.31-0.51-0.53-0.66
			S81.6,116.58,81.3,116.58z"/>
		<path d="M86.03,116.21v0.46h-0.88v3.06c0,0.2,0.02,0.35,0.05,0.45c0.03,0.1,0.09,0.17,0.16,0.2c0.07,0.03,0.17,0.05,0.3,0.05
			c0.13,0,0.26-0.02,0.4-0.06l0.08,0.49c-0.25,0.04-0.44,0.06-0.57,0.06c-0.28,0-0.48-0.04-0.62-0.13s-0.24-0.21-0.28-0.39
			c-0.05-0.17-0.07-0.42-0.07-0.73v-3.01h-0.67v-0.46h0.67v-1.12l0.57-0.4v1.52H86.03z"/>
		<path d="M88.82,120.5c0.31,0,0.58-0.08,0.81-0.25c0.23-0.17,0.4-0.4,0.5-0.7l0.56,0.09c-0.15,0.44-0.39,0.77-0.72,1
			c-0.33,0.23-0.73,0.35-1.19,0.35c-0.43,0-0.8-0.1-1.11-0.29s-0.56-0.48-0.73-0.84s-0.25-0.79-0.25-1.27
			c0-0.51,0.09-0.95,0.26-1.32c0.17-0.37,0.41-0.66,0.73-0.86s0.68-0.3,1.1-0.3c0.47,0,0.85,0.11,1.15,0.33s0.52,0.52,0.66,0.9
			s0.21,0.82,0.21,1.31h-3.52c0.01,0.38,0.08,0.72,0.21,1c0.13,0.28,0.31,0.49,0.54,0.64C88.25,120.43,88.52,120.5,88.82,120.5z
			 M88.76,116.58c-0.27,0-0.51,0.06-0.72,0.19s-0.38,0.31-0.51,0.55c-0.13,0.24-0.21,0.53-0.24,0.86h2.92
			c-0.05-0.53-0.2-0.92-0.44-1.19C89.51,116.71,89.18,116.58,88.76,116.58z"/>
		<path d="M93.48,116.58c-0.28,0-0.53,0.07-0.75,0.22s-0.4,0.37-0.52,0.66c-0.13,0.29-0.19,0.66-0.19,1.08
			c0,0.39,0.06,0.73,0.18,1.02c0.12,0.29,0.29,0.52,0.51,0.69c0.22,0.16,0.49,0.25,0.8,0.25c0.35,0,0.64-0.1,0.88-0.3
			c0.24-0.2,0.41-0.51,0.53-0.94l0.57,0.11c-0.15,0.54-0.39,0.94-0.72,1.21c-0.33,0.27-0.76,0.4-1.28,0.4c-0.42,0-0.79-0.1-1.1-0.31
			c-0.31-0.21-0.54-0.5-0.71-0.87c-0.16-0.37-0.24-0.79-0.24-1.27c0-0.48,0.08-0.91,0.25-1.28s0.41-0.65,0.73-0.85
			s0.68-0.3,1.09-0.3c0.51,0,0.92,0.12,1.23,0.36c0.31,0.24,0.54,0.59,0.68,1.06l-0.57,0.11C94.66,116.93,94.2,116.58,93.48,116.58z
			"/>
		<path d="M98.4,116.1c0.51,0,0.9,0.14,1.18,0.41c0.28,0.27,0.42,0.66,0.42,1.17v3.19h-0.57v-3.11c0-0.38-0.1-0.66-0.29-0.86
			s-0.46-0.3-0.82-0.3c-0.27,0-0.51,0.07-0.72,0.2c-0.21,0.13-0.37,0.31-0.49,0.54c-0.11,0.22-0.16,0.53-0.16,0.93v2.61h-0.57v-6.44
			h0.57v2.48c0.15-0.25,0.35-0.45,0.61-0.6C97.83,116.18,98.11,116.1,98.4,116.1z"/>
		<path d="M103.38,121.03h-0.42l2.09-6.71h0.41L103.38,121.03z"/>
		<path d="M109.91,120.01l1.44-5.58h0.75l1.44,5.54h0.02l1.38-5.53l0.01-0.01h0.58l-1.68,6.44h-0.6l-1.49-5.75l-0.01-0.01h-0.01
			l-1.53,5.76h-0.6l-1.67-6.44h0.62l1.35,5.58H109.91z"/>
		<path d="M116.25,115.21v-0.78h0.57v0.78H116.25z M116.25,120.87v-4.66h0.57v4.66H116.25z"/>
		<path d="M121.09,117.76c0-0.38-0.1-0.66-0.29-0.86s-0.46-0.3-0.82-0.3c-0.27,0-0.51,0.07-0.72,0.2c-0.21,0.13-0.37,0.31-0.49,0.54
			c-0.11,0.21-0.16,0.52-0.16,0.93v2.61h-0.57v-4.66h0.53v0.74c0.16-0.27,0.37-0.48,0.62-0.63s0.54-0.22,0.86-0.22
			c0.51,0,0.9,0.14,1.18,0.41c0.28,0.27,0.42,0.66,0.42,1.17v3.19h-0.57V117.76z"/>
		<path d="M125.9,117.76c0-0.38-0.1-0.66-0.29-0.86s-0.46-0.3-0.82-0.3c-0.27,0-0.51,0.07-0.72,0.2c-0.21,0.13-0.37,0.31-0.49,0.54
			c-0.11,0.21-0.16,0.52-0.16,0.93v2.61h-0.57v-4.66h0.53v0.74c0.16-0.27,0.37-0.48,0.62-0.63s0.54-0.22,0.86-0.22
			c0.51,0,0.9,0.14,1.18,0.41c0.28,0.27,0.42,0.66,0.42,1.17v3.19h-0.57V117.76z"/>
		<path d="M127.67,115.21v-0.78h0.57v0.78H127.67z M127.67,120.87v-4.66h0.57v4.66H127.67z"/>
		<path d="M131.23,116.58c-0.28,0-0.53,0.07-0.75,0.22s-0.4,0.37-0.52,0.66c-0.13,0.29-0.19,0.66-0.19,1.08
			c0,0.39,0.06,0.73,0.18,1.02c0.12,0.29,0.29,0.52,0.51,0.69c0.22,0.16,0.49,0.25,0.8,0.25c0.35,0,0.64-0.1,0.88-0.3
			c0.24-0.2,0.41-0.51,0.53-0.94l0.57,0.11c-0.15,0.54-0.39,0.94-0.72,1.21c-0.33,0.27-0.76,0.4-1.28,0.4c-0.42,0-0.79-0.1-1.1-0.31
			c-0.31-0.21-0.54-0.5-0.71-0.87c-0.16-0.37-0.24-0.79-0.24-1.27c0-0.48,0.08-0.91,0.25-1.28s0.41-0.65,0.73-0.85
			s0.68-0.3,1.09-0.3c0.51,0,0.92,0.12,1.23,0.36c0.31,0.24,0.54,0.59,0.68,1.06l-0.57,0.11
			C132.41,116.93,131.95,116.58,131.23,116.58z"/>
		<path d="M137.79,120.87h-0.58c-0.08-0.19-0.13-0.42-0.15-0.7l-0.01,0c-0.21,0.28-0.45,0.48-0.71,0.62s-0.58,0.2-0.95,0.2
			c-0.28,0-0.53-0.06-0.75-0.16c-0.21-0.11-0.38-0.26-0.5-0.46s-0.18-0.42-0.18-0.67c0-0.27,0.06-0.5,0.17-0.69
			c0.11-0.19,0.3-0.35,0.55-0.47c0.25-0.12,0.58-0.22,1-0.28c0.61-0.09,1.06-0.19,1.34-0.29v-0.17c0-0.29-0.03-0.52-0.1-0.69
			c-0.06-0.17-0.18-0.3-0.35-0.38c-0.17-0.08-0.41-0.12-0.72-0.12c-0.67,0-1.08,0.3-1.21,0.91l-0.56-0.08
			c0.09-0.43,0.29-0.76,0.6-0.98s0.71-0.33,1.21-0.33c0.39,0,0.7,0.05,0.95,0.15s0.43,0.27,0.56,0.5c0.12,0.23,0.19,0.54,0.19,0.92
			v1.75c0,0.4,0.01,0.7,0.04,0.89C137.65,120.5,137.7,120.69,137.79,120.87z M135.62,118.74c-0.39,0.07-0.66,0.18-0.83,0.33
			s-0.25,0.35-0.25,0.61c0,0.26,0.09,0.47,0.26,0.61c0.17,0.15,0.41,0.22,0.72,0.22c0.11,0,0.25-0.02,0.39-0.07
			c0.15-0.04,0.29-0.11,0.42-0.18c0.13-0.08,0.24-0.17,0.32-0.26c0.1-0.13,0.18-0.23,0.22-0.33c0.05-0.09,0.08-0.22,0.1-0.37
			s0.03-0.38,0.03-0.67v-0.24c-0.08,0.04-0.24,0.09-0.47,0.15C136.3,118.61,136,118.67,135.62,118.74z"/>
		<path d="M142.01,114.98v2.31h2.72v0.55h-2.72v3.03h-0.61v-6.44h3.76v0.55H142.01z"/>
		<path d="M147.78,116.67c-0.24,0-0.44,0.07-0.61,0.22s-0.29,0.34-0.38,0.6c-0.08,0.26-0.12,0.55-0.12,0.89v2.5h-0.57v-4.66h0.53
			v0.74l0.01,0c0.15-0.29,0.31-0.5,0.49-0.64s0.4-0.21,0.67-0.21c0.13,0,0.24,0.01,0.35,0.04c0.11,0.03,0.23,0.08,0.37,0.15
			l-0.19,0.53C148.13,116.72,147.95,116.67,147.78,116.67z"/>
		<path d="M149.13,115.21v-0.78h0.57v0.78H149.13z M149.13,120.87v-4.66h0.57v4.66H149.13z"/>
		<path d="M152.6,116.21v0.46h-0.88v3.06c0,0.2,0.02,0.35,0.05,0.45c0.03,0.1,0.09,0.17,0.16,0.2c0.07,0.03,0.17,0.05,0.3,0.05
			c0.13,0,0.26-0.02,0.4-0.06l0.08,0.49c-0.25,0.04-0.44,0.06-0.57,0.06c-0.28,0-0.48-0.04-0.62-0.13s-0.24-0.21-0.28-0.39
			c-0.05-0.17-0.07-0.42-0.07-0.73v-3.01h-0.67v-0.46h0.67v-1.12l0.57-0.4v1.52H152.6z"/>
		<path d="M153.82,120.39h2.99v0.48h-3.67v-0.48l2.79-3.72h-2.61v-0.46h3.34v0.37L153.82,120.39z"/>
	</g>
</g>
<g>
	<g>
		<path d="M64.92,158.79c0,0.36-0.08,0.69-0.25,0.97s-0.4,0.51-0.71,0.66c-0.31,0.16-0.67,0.24-1.08,0.24h-1.63v2.73h-0.61v-6.44
			h2.21c0.42,0,0.78,0.07,1.09,0.22c0.31,0.14,0.55,0.35,0.72,0.63C64.84,158.07,64.92,158.41,64.92,158.79z M64.29,158.81
			c0-0.43-0.13-0.76-0.38-0.98c-0.25-0.22-0.65-0.33-1.19-0.33h-1.45v2.61h1.45c0.51,0,0.9-0.11,1.17-0.33
			C64.15,159.56,64.29,159.23,64.29,158.81z"/>
		<path d="M65.64,161.06c0-0.52,0.09-0.97,0.26-1.33s0.42-0.64,0.73-0.83c0.31-0.19,0.68-0.28,1.09-0.28c0.42,0,0.79,0.09,1.1,0.28
			c0.31,0.19,0.56,0.46,0.73,0.83c0.17,0.37,0.26,0.81,0.26,1.33s-0.09,0.96-0.26,1.33c-0.17,0.37-0.42,0.65-0.73,0.83
			c-0.32,0.19-0.68,0.28-1.11,0.28c-0.41,0-0.78-0.09-1.09-0.28c-0.32-0.19-0.56-0.47-0.73-0.83S65.64,161.58,65.64,161.06z
			 M67.72,159.1c-0.29,0-0.55,0.07-0.77,0.22c-0.22,0.15-0.4,0.37-0.53,0.66c-0.13,0.29-0.19,0.65-0.19,1.08
			c0,0.43,0.06,0.79,0.19,1.09c0.13,0.29,0.3,0.51,0.53,0.66c0.22,0.15,0.49,0.22,0.78,0.22c0.3,0,0.56-0.07,0.78-0.22
			c0.23-0.14,0.41-0.36,0.53-0.66c0.13-0.29,0.19-0.66,0.19-1.09c0-0.42-0.06-0.77-0.19-1.06c-0.13-0.29-0.31-0.51-0.53-0.66
			S68.02,159.1,67.72,159.1z"/>
		<path d="M70.76,163.39v-6.44h0.57v6.44H70.76z"/>
		<path d="M76.2,163.39h-0.58c-0.08-0.19-0.13-0.42-0.15-0.7l-0.01,0c-0.21,0.28-0.45,0.48-0.71,0.62s-0.58,0.2-0.95,0.2
			c-0.28,0-0.53-0.06-0.75-0.16c-0.21-0.11-0.38-0.26-0.5-0.46s-0.18-0.42-0.18-0.67c0-0.27,0.06-0.5,0.17-0.69
			c0.11-0.19,0.3-0.35,0.55-0.47c0.25-0.12,0.58-0.22,1-0.28c0.61-0.09,1.06-0.19,1.34-0.29v-0.17c0-0.29-0.03-0.52-0.1-0.69
			c-0.06-0.17-0.18-0.3-0.35-0.38c-0.17-0.08-0.41-0.12-0.72-0.12c-0.67,0-1.08,0.3-1.21,0.91l-0.56-0.08
			c0.09-0.43,0.29-0.76,0.6-0.98s0.71-0.33,1.21-0.33c0.39,0,0.7,0.05,0.95,0.15s0.43,0.27,0.56,0.5c0.12,0.23,0.19,0.54,0.19,0.92
			v1.75c0,0.4,0.01,0.7,0.04,0.89C76.06,163.02,76.12,163.21,76.2,163.39z M74.04,161.26c-0.39,0.07-0.66,0.18-0.83,0.33
			s-0.25,0.35-0.25,0.61c0,0.26,0.09,0.47,0.26,0.61c0.17,0.15,0.41,0.22,0.72,0.22c0.11,0,0.25-0.02,0.39-0.07
			c0.15-0.04,0.29-0.11,0.42-0.18c0.13-0.08,0.24-0.17,0.32-0.26c0.1-0.13,0.18-0.23,0.22-0.33c0.05-0.09,0.08-0.22,0.1-0.37
			s0.03-0.38,0.03-0.67v-0.24c-0.08,0.04-0.24,0.09-0.47,0.15C74.72,161.13,74.41,161.19,74.04,161.26z"/>
		<path d="M80.35,160.28c0-0.38-0.1-0.66-0.29-0.86s-0.46-0.3-0.82-0.3c-0.27,0-0.51,0.07-0.72,0.2c-0.21,0.13-0.37,0.31-0.49,0.54
			c-0.11,0.21-0.16,0.52-0.16,0.93v2.61H77.3v-4.66h0.53v0.74c0.16-0.27,0.37-0.48,0.62-0.63s0.54-0.22,0.86-0.22
			c0.51,0,0.9,0.14,1.18,0.41c0.28,0.27,0.42,0.66,0.42,1.17v3.19h-0.57V160.28z"/>
		<path d="M85.87,163.39h-0.53v-0.73h-0.02c-0.16,0.27-0.36,0.47-0.61,0.62c-0.25,0.15-0.54,0.22-0.87,0.22
			c-0.39,0-0.74-0.1-1.04-0.31c-0.3-0.2-0.54-0.49-0.71-0.86s-0.25-0.79-0.25-1.27c0-0.49,0.08-0.91,0.25-1.28
			c0.17-0.37,0.4-0.65,0.7-0.85s0.64-0.3,1.04-0.3c0.64,0,1.12,0.26,1.46,0.79h0.03v-2.47h0.57V163.39z M83.86,159.1
			c-0.29,0-0.54,0.08-0.76,0.25s-0.39,0.4-0.5,0.7c-0.12,0.3-0.17,0.63-0.17,1.02c0,0.39,0.06,0.74,0.18,1.03s0.29,0.52,0.51,0.68
			s0.47,0.24,0.75,0.24c0.31,0,0.57-0.08,0.79-0.23c0.22-0.16,0.39-0.38,0.51-0.67c0.12-0.29,0.18-0.63,0.18-1.03
			c0-0.41-0.06-0.76-0.18-1.06s-0.3-0.53-0.52-0.69C84.42,159.18,84.16,159.1,83.86,159.1z"/>
	</g>
</g>
<g>
	<g>
		<path d="M76.97,135.69h0.91v6.44h-0.56v-5.81H77.3l-2.12,5.81h-0.51l-2.1-5.81h-0.03v5.81h-0.56v-6.44h0.91l2.03,5.61
			L76.97,135.69z"/>
		<path d="M79.26,136.47v-0.78h0.57v0.78H79.26z M79.26,142.13v-4.66h0.57v4.66H79.26z"/>
		<path d="M82.81,137.84c-0.28,0-0.53,0.07-0.75,0.22s-0.4,0.37-0.52,0.66c-0.13,0.29-0.19,0.66-0.19,1.08
			c0,0.39,0.06,0.73,0.18,1.02c0.12,0.29,0.29,0.52,0.51,0.69c0.22,0.16,0.49,0.25,0.8,0.25c0.35,0,0.64-0.1,0.88-0.3
			c0.24-0.2,0.41-0.51,0.53-0.94l0.57,0.11c-0.15,0.54-0.39,0.94-0.72,1.21c-0.33,0.27-0.76,0.4-1.28,0.4c-0.42,0-0.79-0.1-1.1-0.31
			c-0.31-0.21-0.54-0.5-0.71-0.87c-0.16-0.37-0.24-0.79-0.24-1.27c0-0.48,0.08-0.91,0.25-1.28s0.41-0.65,0.73-0.85
			s0.68-0.3,1.09-0.3c0.51,0,0.92,0.12,1.23,0.36c0.31,0.24,0.54,0.59,0.68,1.06l-0.57,0.11C83.99,138.19,83.54,137.84,82.81,137.84
			z"/>
		<path d="M87.74,137.36c0.51,0,0.9,0.14,1.18,0.41c0.28,0.27,0.42,0.66,0.42,1.17v3.19h-0.57v-3.11c0-0.38-0.1-0.66-0.29-0.86
			s-0.46-0.3-0.82-0.3c-0.27,0-0.51,0.07-0.72,0.2c-0.21,0.13-0.37,0.31-0.49,0.54c-0.11,0.22-0.16,0.53-0.16,0.93v2.61h-0.57v-6.44
			h0.57v2.48c0.15-0.25,0.35-0.45,0.61-0.6C87.16,137.44,87.44,137.36,87.74,137.36z"/>
		<path d="M94.19,142.13H93.6c-0.08-0.19-0.13-0.42-0.15-0.7l-0.01,0c-0.21,0.28-0.45,0.48-0.71,0.62s-0.58,0.2-0.95,0.2
			c-0.28,0-0.53-0.06-0.75-0.16c-0.21-0.11-0.38-0.26-0.5-0.46s-0.18-0.42-0.18-0.67c0-0.27,0.06-0.5,0.17-0.69
			c0.11-0.19,0.3-0.35,0.55-0.47c0.25-0.12,0.58-0.22,1-0.28c0.61-0.09,1.06-0.19,1.34-0.29v-0.17c0-0.29-0.03-0.52-0.1-0.69
			c-0.06-0.17-0.18-0.3-0.35-0.38c-0.17-0.08-0.41-0.12-0.72-0.12c-0.67,0-1.08,0.3-1.21,0.91l-0.56-0.08
			c0.09-0.43,0.29-0.76,0.6-0.98s0.71-0.33,1.21-0.33c0.39,0,0.7,0.05,0.95,0.15s0.43,0.27,0.56,0.5c0.12,0.23,0.19,0.54,0.19,0.92
			v1.75c0,0.4,0.01,0.7,0.04,0.89C94.05,141.76,94.11,141.95,94.19,142.13z M92.03,140c-0.39,0.07-0.66,0.18-0.83,0.33
			s-0.25,0.35-0.25,0.61c0,0.26,0.09,0.47,0.26,0.61c0.17,0.15,0.41,0.22,0.72,0.22c0.11,0,0.25-0.02,0.39-0.07
			c0.15-0.04,0.29-0.11,0.42-0.18c0.13-0.08,0.24-0.17,0.32-0.26c0.1-0.13,0.18-0.23,0.22-0.33c0.05-0.09,0.08-0.22,0.1-0.37
			s0.03-0.38,0.03-0.67v-0.24c-0.08,0.04-0.24,0.09-0.47,0.15C92.7,139.87,92.4,139.93,92.03,140z"/>
		<path d="M95.29,142.13v-6.44h0.57v6.44H95.29z"/>
		<path d="M100.09,139.56l2.16-2.09h0.73l-1.83,1.76l1.97,2.9h-0.71l-1.67-2.54l-0.65,0.61v1.93h-0.57v-6.44h0.57V139.56z"/>
		<path d="M105.11,141.45l1.05-3.98h0.51l1.06,3.98h0.02l1.18-3.98h0.57l-1.5,4.66h-0.56l-1.02-3.83h-0.02l-1.01,3.83h-0.57
			l-1.5-4.66h0.58l1.19,3.98H105.11z"/>
		<path d="M110.19,136.47v-0.78h0.57v0.78H110.19z M110.19,142.13v-4.66h0.57v4.66H110.19z"/>
		<path d="M115.62,142.13h-0.58c-0.08-0.19-0.13-0.42-0.15-0.7l-0.01,0c-0.21,0.28-0.45,0.48-0.71,0.62s-0.58,0.2-0.95,0.2
			c-0.28,0-0.53-0.06-0.75-0.16c-0.21-0.11-0.38-0.26-0.5-0.46s-0.18-0.42-0.18-0.67c0-0.27,0.06-0.5,0.17-0.69
			c0.11-0.19,0.3-0.35,0.55-0.47c0.25-0.12,0.58-0.22,1-0.28c0.61-0.09,1.06-0.19,1.34-0.29v-0.17c0-0.29-0.03-0.52-0.1-0.69
			c-0.06-0.17-0.18-0.3-0.35-0.38c-0.17-0.08-0.41-0.12-0.72-0.12c-0.67,0-1.08,0.3-1.21,0.91l-0.56-0.08
			c0.09-0.43,0.29-0.76,0.6-0.98s0.71-0.33,1.21-0.33c0.39,0,0.7,0.05,0.95,0.15s0.43,0.27,0.56,0.5c0.12,0.23,0.19,0.54,0.19,0.92
			v1.75c0,0.4,0.01,0.7,0.04,0.89C115.49,141.76,115.54,141.95,115.62,142.13z M113.46,140c-0.39,0.07-0.66,0.18-0.83,0.33
			s-0.25,0.35-0.25,0.61c0,0.26,0.09,0.47,0.26,0.61c0.17,0.15,0.41,0.22,0.72,0.22c0.11,0,0.25-0.02,0.39-0.07
			c0.15-0.04,0.29-0.11,0.42-0.18c0.13-0.08,0.24-0.17,0.32-0.26c0.1-0.13,0.18-0.23,0.22-0.33c0.05-0.09,0.08-0.22,0.1-0.37
			s0.03-0.38,0.03-0.67v-0.24c-0.08,0.04-0.24,0.09-0.47,0.15C114.14,139.87,113.83,139.93,113.46,140z"/>
		<path d="M118.41,137.47v0.46h-0.88v3.06c0,0.2,0.02,0.35,0.05,0.45c0.03,0.1,0.09,0.17,0.16,0.2c0.07,0.03,0.17,0.05,0.3,0.05
			c0.13,0,0.26-0.02,0.4-0.06l0.08,0.49c-0.25,0.04-0.44,0.06-0.57,0.06c-0.28,0-0.48-0.04-0.62-0.13s-0.24-0.21-0.28-0.39
			c-0.05-0.17-0.07-0.42-0.07-0.73v-3.01h-0.67v-0.46h0.67v-1.12l0.57-0.4v1.52H118.41z"/>
		<path d="M120,139.56l2.16-2.09h0.73l-1.83,1.76l1.97,2.9h-0.71l-1.67-2.54L120,140.2v1.93h-0.57v-6.44H120V139.56z"/>
		<path d="M123.49,139.8c0-0.52,0.09-0.97,0.26-1.33s0.42-0.64,0.73-0.83c0.31-0.19,0.68-0.28,1.09-0.28c0.42,0,0.79,0.09,1.1,0.28
			c0.31,0.19,0.56,0.46,0.73,0.83c0.17,0.37,0.26,0.81,0.26,1.33s-0.09,0.96-0.26,1.33c-0.17,0.37-0.42,0.65-0.73,0.83
			c-0.32,0.19-0.68,0.28-1.11,0.28c-0.41,0-0.78-0.09-1.09-0.28c-0.32-0.19-0.56-0.47-0.73-0.83S123.49,140.32,123.49,139.8z
			 M125.56,137.84c-0.29,0-0.55,0.07-0.77,0.22c-0.22,0.15-0.4,0.37-0.53,0.66c-0.13,0.29-0.19,0.65-0.19,1.08
			c0,0.43,0.06,0.79,0.19,1.09c0.13,0.29,0.3,0.51,0.53,0.66c0.22,0.15,0.49,0.22,0.78,0.22c0.3,0,0.56-0.07,0.78-0.22
			c0.23-0.14,0.41-0.36,0.53-0.66c0.13-0.29,0.19-0.66,0.19-1.09c0-0.42-0.06-0.77-0.19-1.06c-0.13-0.29-0.31-0.51-0.53-0.66
			S125.87,137.84,125.56,137.84z"/>
		<path d="M129.86,141.45l1.05-3.98h0.51l1.06,3.98h0.02l1.18-3.98h0.57l-1.5,4.66h-0.56l-1.02-3.83h-0.02l-1.01,3.83h-0.57
			l-1.5-4.66h0.58l1.19,3.98H129.86z"/>
		<path d="M136.35,137.84c-0.2,0-0.38,0.03-0.53,0.09s-0.28,0.15-0.36,0.26c-0.09,0.11-0.13,0.25-0.13,0.4
			c0,0.16,0.04,0.29,0.11,0.4c0.07,0.1,0.19,0.19,0.37,0.26c0.17,0.07,0.42,0.14,0.74,0.19c0.4,0.07,0.71,0.17,0.95,0.28
			c0.24,0.11,0.41,0.26,0.52,0.44s0.17,0.39,0.17,0.65c0,0.27-0.07,0.52-0.22,0.73c-0.15,0.21-0.35,0.38-0.61,0.51
			s-0.56,0.18-0.89,0.18c-0.5,0-0.91-0.11-1.21-0.34s-0.5-0.56-0.59-1.01l0.56-0.09c0.13,0.64,0.55,0.95,1.24,0.95
			c0.23,0,0.44-0.04,0.61-0.11c0.17-0.07,0.3-0.18,0.4-0.31c0.09-0.13,0.14-0.29,0.14-0.46c0-0.18-0.05-0.33-0.14-0.45
			s-0.23-0.21-0.43-0.28s-0.46-0.14-0.8-0.2c-0.49-0.08-0.86-0.23-1.1-0.44c-0.24-0.21-0.36-0.5-0.36-0.87
			c0-0.25,0.06-0.47,0.19-0.66s0.31-0.35,0.55-0.46s0.51-0.17,0.83-0.17c0.45,0,0.82,0.1,1.11,0.29c0.29,0.19,0.48,0.47,0.57,0.85
			l-0.55,0.08c-0.05-0.23-0.18-0.42-0.37-0.54C136.91,137.91,136.66,137.84,136.35,137.84z"/>
		<path d="M139.81,139.56l2.16-2.09h0.73l-1.83,1.76l1.97,2.9h-0.71l-1.67-2.54l-0.65,0.61v1.93h-0.57v-6.44h0.57V139.56z"/>
		<path d="M143.58,136.47v-0.78h0.57v0.78H143.58z M143.58,142.13v-4.66h0.57v4.66H143.58z"/>
	</g>
</g>
</svg>
