<?xml version="1.0" encoding="utf-8"?>
<!-- Generator: Adobe Illustrator 25.0.1, SVG Export Plug-In . SVG Version: 6.00 Build 0)  -->
<svg version="1.1" id="Layer_1" xmlns="http://www.w3.org/2000/svg" xmlns:xlink="http://www.w3.org/1999/xlink" x="0px" y="0px"
	 viewBox="0 0 183 17" style="enable-background:new 0 0 183 17;" xml:space="preserve">
<g>
	<path d="M6.85,6.81c0,0.85-0.24,1.47-0.72,1.88C5.65,9.1,4.91,9.3,3.91,9.3h-1.2v2.96H1.13V4.39h2.78c1.01,0,1.76,0.2,2.23,0.61
		S6.85,6.02,6.85,6.81z M5.2,6.84c0-0.36-0.11-0.63-0.32-0.83s-0.55-0.29-1-0.29H2.71v2.25h1.17c0.48,0,0.82-0.1,1.02-0.29
		S5.2,7.21,5.2,6.84z"/>
	<path d="M10.64,7.8c-0.38,0-0.67,0.15-0.88,0.46c-0.2,0.31-0.3,0.75-0.3,1.31v2.69H7.96v-5.7h1.4v0.81h0.02
		c0.2-0.33,0.41-0.57,0.64-0.72c0.23-0.14,0.5-0.22,0.82-0.22c0.19,0,0.37,0.02,0.53,0.07s0.32,0.11,0.47,0.19l-0.48,1.34
		c-0.08-0.05-0.19-0.11-0.33-0.16C10.88,7.83,10.75,7.8,10.64,7.8z"/>
	<path d="M12.19,9.38c0-0.56,0.11-1.06,0.34-1.51s0.56-0.8,0.99-1.05c0.43-0.25,0.94-0.38,1.53-0.38c0.6,0,1.12,0.13,1.55,0.38
		c0.44,0.26,0.77,0.61,1,1.05c0.23,0.45,0.34,0.95,0.34,1.52c0,0.59-0.11,1.11-0.34,1.56s-0.56,0.81-0.99,1.06
		c-0.43,0.26-0.95,0.38-1.54,0.38s-1.11-0.13-1.54-0.38c-0.43-0.26-0.76-0.61-0.99-1.07C12.3,10.49,12.19,9.97,12.19,9.38z
		 M15.05,7.67c-0.25,0-0.47,0.07-0.67,0.21c-0.2,0.14-0.36,0.34-0.47,0.61s-0.17,0.58-0.17,0.93c0,0.35,0.05,0.66,0.16,0.93
		c0.11,0.26,0.26,0.46,0.46,0.61c0.2,0.14,0.43,0.21,0.7,0.21s0.5-0.07,0.71-0.21s0.36-0.34,0.47-0.61
		c0.11-0.26,0.17-0.58,0.17-0.94c0-0.35-0.05-0.65-0.16-0.91s-0.26-0.46-0.46-0.61C15.57,7.74,15.33,7.67,15.05,7.67z"/>
	<path d="M20.6,11.65h-0.03v2.79h-1.51V6.57h1.41V7.4h0.03c0.2-0.33,0.45-0.57,0.77-0.73c0.31-0.16,0.65-0.24,1.01-0.24
		c0.46,0,0.87,0.12,1.23,0.37s0.65,0.6,0.86,1.06c0.21,0.46,0.31,0.99,0.31,1.6c0,0.6-0.1,1.12-0.31,1.57s-0.49,0.78-0.85,1.01
		s-0.78,0.35-1.26,0.35c-0.37,0-0.68-0.05-0.92-0.16S20.85,11.94,20.6,11.65z M21.91,7.64c-0.39,0-0.71,0.15-0.96,0.45
		c-0.25,0.3-0.38,0.79-0.38,1.45c0,0.34,0.05,0.63,0.16,0.88s0.25,0.44,0.45,0.57s0.42,0.2,0.68,0.2c0.42,0,0.73-0.15,0.95-0.46
		c0.22-0.31,0.32-0.75,0.32-1.33c0-0.55-0.11-0.99-0.32-1.3S22.29,7.64,21.91,7.64z"/>
	<path d="M25.43,9.38c0-0.56,0.11-1.06,0.34-1.51s0.56-0.8,0.99-1.05c0.43-0.25,0.94-0.38,1.53-0.38c0.6,0,1.12,0.13,1.55,0.38
		c0.44,0.26,0.77,0.61,1,1.05c0.23,0.45,0.34,0.95,0.34,1.52c0,0.59-0.11,1.11-0.34,1.56s-0.56,0.81-0.99,1.06
		c-0.43,0.26-0.95,0.38-1.54,0.38s-1.11-0.13-1.54-0.38c-0.43-0.26-0.76-0.61-0.99-1.07C25.54,10.49,25.43,9.97,25.43,9.38z
		 M28.29,7.67c-0.25,0-0.47,0.07-0.67,0.21c-0.2,0.14-0.36,0.34-0.47,0.61s-0.17,0.58-0.17,0.93c0,0.35,0.05,0.66,0.16,0.93
		c0.11,0.26,0.26,0.46,0.46,0.61c0.2,0.14,0.43,0.21,0.7,0.21s0.5-0.07,0.71-0.21s0.36-0.34,0.47-0.61
		c0.11-0.26,0.17-0.58,0.17-0.94c0-0.35-0.05-0.65-0.16-0.91s-0.26-0.46-0.46-0.61C28.81,7.74,28.57,7.67,28.29,7.67z"/>
	<path d="M34.3,7.51c-0.24,0-0.43,0.04-0.58,0.13c-0.15,0.08-0.22,0.2-0.22,0.35c0,0.11,0.04,0.21,0.1,0.28
		c0.07,0.08,0.19,0.15,0.37,0.21c0.18,0.06,0.42,0.12,0.74,0.17c0.72,0.12,1.26,0.33,1.6,0.62s0.52,0.69,0.52,1.22
		c0,0.37-0.1,0.69-0.29,0.99s-0.47,0.52-0.84,0.68c-0.36,0.17-0.79,0.25-1.28,0.25c-0.75,0-1.34-0.15-1.77-0.45
		s-0.69-0.74-0.78-1.31l1.41-0.23c0.06,0.3,0.19,0.53,0.37,0.68s0.44,0.23,0.77,0.23c0.29,0,0.52-0.05,0.69-0.16
		s0.26-0.26,0.26-0.45c0-0.1-0.03-0.19-0.09-0.27c-0.06-0.07-0.16-0.14-0.32-0.2c-0.15-0.06-0.37-0.11-0.66-0.15
		c-0.79-0.12-1.37-0.34-1.72-0.67s-0.54-0.75-0.54-1.29c0-0.35,0.09-0.65,0.27-0.91c0.18-0.26,0.45-0.46,0.79-0.59
		s0.75-0.21,1.22-0.21c0.67,0,1.2,0.13,1.61,0.4c0.41,0.26,0.66,0.64,0.74,1.13l-1.44,0.21C35.2,7.96,35.1,7.8,34.93,7.68
		C34.76,7.57,34.55,7.51,34.3,7.51z"/>
	<path d="M42.88,12.27h-1.49c-0.08-0.17-0.14-0.37-0.18-0.63c-0.5,0.51-1.1,0.76-1.77,0.76c-0.37,0-0.7-0.07-0.98-0.21
		c-0.28-0.14-0.5-0.34-0.65-0.6c-0.15-0.26-0.23-0.56-0.23-0.89c0-0.5,0.17-0.91,0.49-1.2c0.33-0.3,0.84-0.5,1.53-0.61
		s1.17-0.21,1.45-0.31V8.46c0-0.33-0.08-0.56-0.24-0.68c-0.16-0.12-0.4-0.19-0.72-0.19c-0.25,0-0.46,0.06-0.63,0.17
		c-0.17,0.11-0.29,0.3-0.38,0.54L37.69,8.1c0.15-0.57,0.43-0.99,0.84-1.26s0.95-0.4,1.64-0.4c0.55,0,1.01,0.07,1.36,0.21
		c0.35,0.14,0.61,0.37,0.78,0.67s0.25,0.71,0.25,1.21v2.33c0,0.27,0.02,0.5,0.06,0.68C42.65,11.72,42.74,11.96,42.88,12.27z
		 M39.89,9.82c-0.54,0.11-0.81,0.37-0.81,0.78c0,0.23,0.07,0.41,0.2,0.54c0.13,0.13,0.32,0.19,0.57,0.19s0.47-0.06,0.68-0.19
		c0.14-0.09,0.25-0.18,0.32-0.27c0.07-0.09,0.12-0.22,0.15-0.38c0.03-0.16,0.04-0.39,0.04-0.68V9.54
		C40.77,9.63,40.39,9.73,39.89,9.82z"/>
	<path d="M43.99,12.27V4.39h1.51v7.87H43.99z"/>
	<path d="M53.31,8.7c0-0.37-0.07-0.64-0.2-0.83c-0.14-0.19-0.36-0.28-0.68-0.28c-0.35,0-0.63,0.12-0.85,0.37
		c-0.22,0.25-0.33,0.63-0.33,1.14v3.16h-1.51v-5.7h1.41v0.75c0.2-0.29,0.45-0.5,0.75-0.65c0.3-0.15,0.62-0.22,0.98-0.22
		c0.63,0,1.11,0.17,1.44,0.5s0.5,0.8,0.5,1.41v3.92h-1.51V8.7z"/>
	<path d="M55.85,6.27c0-0.4,0.08-0.75,0.24-1.06c0.16-0.3,0.39-0.54,0.68-0.71c0.3-0.17,0.64-0.25,1.04-0.25
		c0.39,0,0.74,0.08,1.04,0.25c0.3,0.17,0.53,0.4,0.7,0.71c0.16,0.3,0.25,0.66,0.25,1.06c0,0.41-0.08,0.76-0.24,1.07
		c-0.16,0.3-0.39,0.54-0.69,0.71c-0.3,0.17-0.65,0.25-1.06,0.25c-0.4,0-0.75-0.08-1.04-0.25c-0.29-0.16-0.52-0.4-0.68-0.71
		C55.93,7.04,55.85,6.68,55.85,6.27z M57.8,5.16c-0.25,0-0.45,0.1-0.6,0.31c-0.14,0.21-0.21,0.48-0.21,0.82s0.07,0.61,0.21,0.81
		s0.34,0.3,0.6,0.3c0.26,0,0.47-0.1,0.63-0.3s0.23-0.47,0.23-0.8c0-0.35-0.07-0.63-0.22-0.83C58.3,5.26,58.08,5.16,57.8,5.16z"/>
	<path d="M60.97,8.49V7.08h1.59v1.41H60.97z M60.97,12.27v-1.41h1.59v1.41H60.97z"/>
	<path d="M72.75,12.27V6.25c-0.29,0.27-0.6,0.5-0.93,0.69c-0.32,0.19-0.7,0.35-1.13,0.5V6.89c1.08-0.45,1.84-1.05,2.27-1.79h0.47
		v7.16H72.75z"/>
	<path d="M100.71,8.39c0,1.2-0.29,2.15-0.86,2.84c-0.58,0.69-1.46,1.04-2.66,1.04H94.1V4.39h3.09
		C99.54,4.39,100.71,5.72,100.71,8.39z M99.06,8.34c0-0.65-0.07-1.16-0.22-1.54s-0.37-0.65-0.68-0.82
		c-0.31-0.17-0.71-0.25-1.22-0.25h-1.25v5.21h1.27c0.53,0,0.94-0.08,1.24-0.24s0.52-0.43,0.66-0.81C99,9.51,99.06,8.99,99.06,8.34z"
		/>
	<path d="M106.87,12.27h-1.49c-0.08-0.17-0.14-0.37-0.18-0.63c-0.5,0.51-1.1,0.76-1.77,0.76c-0.37,0-0.7-0.07-0.98-0.21
		c-0.28-0.14-0.5-0.34-0.65-0.6c-0.15-0.26-0.23-0.56-0.23-0.89c0-0.5,0.17-0.91,0.49-1.2c0.33-0.3,0.84-0.5,1.53-0.61
		s1.17-0.21,1.45-0.31V8.46c0-0.33-0.08-0.56-0.24-0.68c-0.16-0.12-0.4-0.19-0.72-0.19c-0.25,0-0.46,0.06-0.63,0.17
		c-0.17,0.11-0.29,0.3-0.38,0.54l-1.38-0.21c0.15-0.57,0.43-0.99,0.84-1.26s0.95-0.4,1.64-0.4c0.55,0,1.01,0.07,1.36,0.21
		c0.35,0.14,0.61,0.37,0.78,0.67s0.25,0.71,0.25,1.21v2.33c0,0.27,0.02,0.5,0.06,0.68C106.63,11.72,106.72,11.96,106.87,12.27z
		 M103.87,9.82c-0.54,0.11-0.81,0.37-0.81,0.78c0,0.23,0.07,0.41,0.2,0.54c0.13,0.13,0.32,0.19,0.57,0.19s0.47-0.06,0.68-0.19
		c0.14-0.09,0.25-0.18,0.32-0.27c0.07-0.09,0.12-0.22,0.15-0.38c0.03-0.16,0.04-0.39,0.04-0.68V9.54
		C104.76,9.63,104.37,9.73,103.87,9.82z"/>
	<path d="M110.71,6.57v1.2h-1.06v2.78c0,0.17,0.01,0.29,0.04,0.37s0.06,0.14,0.12,0.18c0.06,0.03,0.15,0.05,0.27,0.05
		c0.19,0,0.38-0.03,0.6-0.09l0.19,1.17c-0.17,0.05-0.35,0.1-0.55,0.13s-0.4,0.05-0.61,0.05c-0.4,0-0.71-0.06-0.94-0.17
		s-0.39-0.29-0.48-0.54c-0.09-0.25-0.14-0.6-0.14-1.04V7.76h-0.81v-1.2h0.81V5.52l1.51-1.07v2.11H110.71z"/>
	<path d="M114.18,11.24c0.32,0,0.58-0.07,0.79-0.22c0.21-0.14,0.35-0.34,0.43-0.58l1.5,0.24c-0.2,0.55-0.53,0.98-0.98,1.27
		c-0.45,0.29-1,0.44-1.66,0.44c-0.62,0-1.13-0.12-1.56-0.37c-0.42-0.24-0.74-0.59-0.95-1.03c-0.21-0.44-0.32-0.96-0.32-1.55
		c0-0.55,0.11-1.05,0.33-1.51c0.22-0.46,0.54-0.82,0.96-1.1c0.42-0.27,0.93-0.41,1.51-0.41c0.55,0,1.04,0.12,1.45,0.35
		s0.73,0.58,0.95,1.03c0.23,0.45,0.34,1,0.34,1.64v0.46h-4.01c0.04,0.42,0.16,0.75,0.37,0.98
		C113.55,11.13,113.83,11.24,114.18,11.24z M112.97,8.82h2.5c-0.04-0.4-0.16-0.7-0.38-0.91c-0.21-0.21-0.5-0.32-0.85-0.32
		c-0.34,0-0.62,0.11-0.85,0.33S113.02,8.44,112.97,8.82z"/>
	<path d="M118.2,8.49V7.08h1.59v1.41H118.2z M118.2,12.27v-1.41h1.59v1.41H118.2z"/>
	<path d="M127.21,8.87c0-1.24,0.2-2.18,0.61-2.82c0.41-0.63,1.07-0.95,1.98-0.95c0.56,0,1.03,0.12,1.41,0.36s0.66,0.63,0.86,1.17
		s0.29,1.24,0.29,2.12c0,1.24-0.21,2.16-0.64,2.75c-0.43,0.59-1.07,0.89-1.92,0.89C128.07,12.39,127.21,11.22,127.21,8.87z
		 M129.78,5.61c-0.54,0-0.94,0.16-1.21,0.49s-0.45,0.72-0.52,1.16c-0.07,0.45-0.11,0.96-0.11,1.53c0,0.64,0.05,1.19,0.16,1.63
		c0.11,0.45,0.3,0.8,0.57,1.06c0.28,0.26,0.66,0.39,1.14,0.39c0.61,0,1.07-0.25,1.36-0.75c0.3-0.5,0.45-1.29,0.45-2.39
		c0-0.75-0.07-1.36-0.2-1.81c-0.13-0.46-0.33-0.79-0.6-1C130.55,5.72,130.2,5.61,129.78,5.61z"/>
	<path d="M136.28,12.27V6.25c-0.29,0.27-0.6,0.5-0.93,0.69c-0.32,0.19-0.7,0.35-1.13,0.5V6.89c1.08-0.45,1.84-1.05,2.27-1.79h0.47
		v7.16H136.28z"/>
	<path d="M139.75,12.45h-0.53l2.62-7.46h0.52L139.75,12.45z"/>
	<path d="M142.94,8.87c0-1.24,0.2-2.18,0.61-2.82c0.41-0.63,1.07-0.95,1.98-0.95c0.56,0,1.03,0.12,1.41,0.36s0.66,0.63,0.86,1.17
		s0.29,1.24,0.29,2.12c0,1.24-0.21,2.16-0.64,2.75c-0.43,0.59-1.07,0.89-1.92,0.89C143.8,12.39,142.94,11.22,142.94,8.87z
		 M145.51,5.61c-0.54,0-0.94,0.16-1.21,0.49s-0.45,0.72-0.52,1.16c-0.07,0.45-0.11,0.96-0.11,1.53c0,0.64,0.05,1.19,0.16,1.63
		c0.11,0.45,0.3,0.8,0.57,1.06c0.28,0.26,0.66,0.39,1.14,0.39c0.61,0,1.07-0.25,1.36-0.75c0.3-0.5,0.45-1.29,0.45-2.39
		c0-0.75-0.07-1.36-0.2-1.81c-0.13-0.46-0.33-0.79-0.6-1C146.28,5.72,145.94,5.61,145.51,5.61z"/>
	<path d="M150.69,5.75l-0.51,2.46c0.29-0.2,0.57-0.34,0.86-0.43c0.29-0.08,0.59-0.12,0.92-0.12c0.48,0,0.91,0.1,1.29,0.3
		s0.67,0.47,0.88,0.81c0.21,0.34,0.31,0.73,0.31,1.15c0,0.5-0.12,0.94-0.36,1.31s-0.57,0.66-0.99,0.86s-0.88,0.3-1.39,0.3
		c-0.63,0-1.16-0.16-1.58-0.47s-0.71-0.79-0.88-1.42l0.7-0.07c0.11,0.48,0.33,0.84,0.64,1.09c0.31,0.25,0.69,0.37,1.15,0.37
		c0.38,0,0.72-0.08,1.02-0.22c0.3-0.15,0.53-0.37,0.7-0.67c0.17-0.3,0.25-0.66,0.25-1.09c0-0.33-0.08-0.63-0.23-0.9
		c-0.15-0.26-0.37-0.47-0.64-0.62c-0.27-0.15-0.57-0.22-0.91-0.22c-0.38,0-0.71,0.06-1.01,0.19c-0.29,0.12-0.61,0.33-0.93,0.63
		l-0.57-0.07l0.76-3.71h3.9v0.55H150.69z"/>
	<path d="M155.48,12.45h-0.53l2.62-7.46h0.52L155.48,12.45z"/>
	<path d="M158.53,12.27c0.04-0.33,0.12-0.62,0.25-0.87s0.35-0.52,0.67-0.8c0.31-0.28,0.77-0.61,1.36-0.99
		c0.6-0.39,1.06-0.71,1.37-0.97c0.31-0.26,0.53-0.51,0.66-0.74c0.13-0.23,0.19-0.49,0.19-0.78c0-0.3-0.08-0.57-0.23-0.79
		c-0.15-0.22-0.36-0.4-0.63-0.52c-0.27-0.12-0.58-0.18-0.92-0.18c-1.06,0-1.68,0.52-1.85,1.55l-0.7-0.08
		c0.12-0.67,0.41-1.16,0.85-1.49c0.44-0.33,1.02-0.49,1.73-0.49c0.48,0,0.9,0.09,1.27,0.26c0.37,0.17,0.67,0.41,0.87,0.71
		c0.21,0.3,0.31,0.63,0.31,1c0,0.32-0.07,0.62-0.21,0.89c-0.14,0.27-0.35,0.53-0.63,0.79c-0.28,0.26-0.67,0.55-1.16,0.88l-0.42,0.28
		c-0.45,0.3-0.79,0.53-1.01,0.69c-0.22,0.17-0.41,0.33-0.57,0.5c-0.16,0.17-0.29,0.36-0.38,0.56h4.38v0.58H158.53z"/>
	<path d="M164.97,8.87c0-1.24,0.2-2.18,0.61-2.82c0.41-0.63,1.07-0.95,1.98-0.95c0.56,0,1.03,0.12,1.41,0.36s0.66,0.63,0.86,1.17
		s0.29,1.24,0.29,2.12c0,1.24-0.21,2.16-0.64,2.75c-0.43,0.59-1.07,0.89-1.92,0.89C165.83,12.39,164.97,11.22,164.97,8.87z
		 M167.54,5.61c-0.54,0-0.94,0.16-1.21,0.49s-0.45,0.72-0.52,1.16c-0.07,0.45-0.11,0.96-0.11,1.53c0,0.64,0.05,1.19,0.16,1.63
		c0.11,0.45,0.3,0.8,0.57,1.06c0.28,0.26,0.66,0.39,1.14,0.39c0.61,0,1.07-0.25,1.36-0.75c0.3-0.5,0.45-1.29,0.45-2.39
		c0-0.75-0.07-1.36-0.2-1.81c-0.13-0.46-0.33-0.79-0.6-1C168.31,5.72,167.96,5.61,167.54,5.61z"/>
	<path d="M171.12,12.27c0.04-0.33,0.12-0.62,0.25-0.87s0.35-0.52,0.67-0.8c0.31-0.28,0.77-0.61,1.36-0.99
		c0.6-0.39,1.06-0.71,1.37-0.97c0.31-0.26,0.53-0.51,0.66-0.74c0.13-0.23,0.19-0.49,0.19-0.78c0-0.3-0.08-0.57-0.23-0.79
		c-0.15-0.22-0.36-0.4-0.63-0.52c-0.27-0.12-0.58-0.18-0.92-0.18c-1.06,0-1.68,0.52-1.85,1.55l-0.7-0.08
		c0.12-0.67,0.41-1.16,0.85-1.49c0.44-0.33,1.02-0.49,1.73-0.49c0.48,0,0.9,0.09,1.27,0.26c0.37,0.17,0.67,0.41,0.87,0.71
		c0.21,0.3,0.31,0.63,0.31,1c0,0.32-0.07,0.62-0.21,0.89c-0.14,0.27-0.35,0.53-0.63,0.79c-0.28,0.26-0.67,0.55-1.16,0.88l-0.42,0.28
		c-0.45,0.3-0.79,0.53-1.01,0.69c-0.22,0.17-0.41,0.33-0.57,0.5c-0.16,0.17-0.29,0.36-0.38,0.56h4.38v0.58H171.12z"/>
	<path d="M181.63,9.95h1.11v0.54h-1.11v1.78h-0.69v-1.78h-3.69V9.94l3.82-4.83h0.55V9.95z M180.95,6.13h-0.02l-3.01,3.82h3.03V6.13z
		"/>
</g>
</svg>
